<mxfile host="app.diagrams.net" agent="Mozilla/5.0 (Windows NT 10.0; Win64; x64) AppleWebKit/537.36 (KHTML, like Gecko) Chrome/130.0.0.0 Safari/537.36" version="24.8.4">
  <diagram id="C5RBs43oDa-KdzZeNtuy" name="Page-1">
    <mxGraphModel dx="1803" dy="2036" grid="1" gridSize="10" guides="1" tooltips="1" connect="1" arrows="1" fold="1" page="1" pageScale="1" pageWidth="827" pageHeight="1169" math="0" shadow="0">
      <root>
        <mxCell id="WIyWlLk6GJQsqaUBKTNV-0" />
        <mxCell id="WIyWlLk6GJQsqaUBKTNV-1" parent="WIyWlLk6GJQsqaUBKTNV-0" />
        <mxCell id="Pnqbn7wbbDNNJb0yD08k-30" value="" style="edgeStyle=none;curved=1;rounded=0;orthogonalLoop=1;jettySize=auto;html=1;fontSize=12;startSize=8;endSize=8;" edge="1" parent="WIyWlLk6GJQsqaUBKTNV-1" source="WIyWlLk6GJQsqaUBKTNV-3" target="WIyWlLk6GJQsqaUBKTNV-12">
          <mxGeometry relative="1" as="geometry" />
        </mxCell>
        <mxCell id="Pnqbn7wbbDNNJb0yD08k-62" value="" style="edgeStyle=none;curved=1;rounded=0;orthogonalLoop=1;jettySize=auto;html=1;fontSize=12;startSize=8;endSize=8;" edge="1" parent="WIyWlLk6GJQsqaUBKTNV-1" source="WIyWlLk6GJQsqaUBKTNV-3" target="Pnqbn7wbbDNNJb0yD08k-3">
          <mxGeometry relative="1" as="geometry" />
        </mxCell>
        <mxCell id="WIyWlLk6GJQsqaUBKTNV-3" value="회원가입" style="rounded=1;whiteSpace=wrap;html=1;fontSize=12;glass=0;strokeWidth=1;shadow=0;" parent="WIyWlLk6GJQsqaUBKTNV-1" vertex="1">
          <mxGeometry x="179" y="150" width="120" height="40" as="geometry" />
        </mxCell>
        <mxCell id="WIyWlLk6GJQsqaUBKTNV-7" value="회원 정보 수정" style="rounded=1;whiteSpace=wrap;html=1;fontSize=12;glass=0;strokeWidth=1;shadow=0;" parent="WIyWlLk6GJQsqaUBKTNV-1" vertex="1">
          <mxGeometry x="689" y="150" width="120" height="40" as="geometry" />
        </mxCell>
        <mxCell id="Pnqbn7wbbDNNJb0yD08k-37" value="" style="edgeStyle=none;curved=1;rounded=0;orthogonalLoop=1;jettySize=auto;html=1;fontSize=12;startSize=8;endSize=8;" edge="1" parent="WIyWlLk6GJQsqaUBKTNV-1" source="WIyWlLk6GJQsqaUBKTNV-11" target="Pnqbn7wbbDNNJb0yD08k-17">
          <mxGeometry relative="1" as="geometry" />
        </mxCell>
        <mxCell id="WIyWlLk6GJQsqaUBKTNV-11" value="공연 검색" style="rounded=1;whiteSpace=wrap;html=1;fontSize=12;glass=0;strokeWidth=1;shadow=0;" parent="WIyWlLk6GJQsqaUBKTNV-1" vertex="1">
          <mxGeometry x="179" y="315" width="120" height="40" as="geometry" />
        </mxCell>
        <mxCell id="Pnqbn7wbbDNNJb0yD08k-32" style="edgeStyle=none;curved=1;rounded=0;orthogonalLoop=1;jettySize=auto;html=1;fontSize=12;startSize=8;endSize=8;" edge="1" parent="WIyWlLk6GJQsqaUBKTNV-1" source="WIyWlLk6GJQsqaUBKTNV-12" target="Pnqbn7wbbDNNJb0yD08k-17">
          <mxGeometry relative="1" as="geometry" />
        </mxCell>
        <mxCell id="Pnqbn7wbbDNNJb0yD08k-36" value="" style="edgeStyle=none;curved=1;rounded=0;orthogonalLoop=1;jettySize=auto;html=1;fontSize=12;startSize=8;endSize=8;" edge="1" parent="WIyWlLk6GJQsqaUBKTNV-1" source="WIyWlLk6GJQsqaUBKTNV-12" target="Pnqbn7wbbDNNJb0yD08k-5">
          <mxGeometry relative="1" as="geometry" />
        </mxCell>
        <mxCell id="WIyWlLk6GJQsqaUBKTNV-12" value="개인 맞춤 추천 정보 수집" style="rounded=1;whiteSpace=wrap;html=1;fontSize=12;glass=0;strokeWidth=1;shadow=0;" parent="WIyWlLk6GJQsqaUBKTNV-1" vertex="1">
          <mxGeometry x="269" y="230" width="160" height="40" as="geometry" />
        </mxCell>
        <mxCell id="Pnqbn7wbbDNNJb0yD08k-57" value="" style="edgeStyle=none;curved=1;rounded=0;orthogonalLoop=1;jettySize=auto;html=1;fontSize=12;startSize=8;endSize=8;" edge="1" parent="WIyWlLk6GJQsqaUBKTNV-1" source="Pnqbn7wbbDNNJb0yD08k-1" target="Pnqbn7wbbDNNJb0yD08k-23">
          <mxGeometry relative="1" as="geometry" />
        </mxCell>
        <mxCell id="Pnqbn7wbbDNNJb0yD08k-60" style="edgeStyle=none;curved=1;rounded=0;orthogonalLoop=1;jettySize=auto;html=1;exitX=0.25;exitY=1;exitDx=0;exitDy=0;entryX=1;entryY=0.5;entryDx=0;entryDy=0;fontSize=12;startSize=8;endSize=8;" edge="1" parent="WIyWlLk6GJQsqaUBKTNV-1" source="Pnqbn7wbbDNNJb0yD08k-1" target="Pnqbn7wbbDNNJb0yD08k-22">
          <mxGeometry relative="1" as="geometry" />
        </mxCell>
        <mxCell id="Pnqbn7wbbDNNJb0yD08k-61" value="" style="edgeStyle=none;curved=1;rounded=0;orthogonalLoop=1;jettySize=auto;html=1;fontSize=12;startSize=8;endSize=8;" edge="1" parent="WIyWlLk6GJQsqaUBKTNV-1" source="Pnqbn7wbbDNNJb0yD08k-1" target="Pnqbn7wbbDNNJb0yD08k-21">
          <mxGeometry relative="1" as="geometry" />
        </mxCell>
        <mxCell id="Pnqbn7wbbDNNJb0yD08k-1" value="공연 등록" style="rounded=1;whiteSpace=wrap;html=1;fontSize=12;glass=0;strokeWidth=1;shadow=0;" vertex="1" parent="WIyWlLk6GJQsqaUBKTNV-1">
          <mxGeometry x="409" y="17" width="120" height="40" as="geometry" />
        </mxCell>
        <mxCell id="Pnqbn7wbbDNNJb0yD08k-63" value="" style="edgeStyle=none;curved=1;rounded=0;orthogonalLoop=1;jettySize=auto;html=1;fontSize=12;startSize=8;endSize=8;" edge="1" parent="WIyWlLk6GJQsqaUBKTNV-1" source="Pnqbn7wbbDNNJb0yD08k-3" target="Pnqbn7wbbDNNJb0yD08k-7">
          <mxGeometry relative="1" as="geometry" />
        </mxCell>
        <mxCell id="Pnqbn7wbbDNNJb0yD08k-3" value="로그인" style="rounded=1;whiteSpace=wrap;html=1;fontSize=12;glass=0;strokeWidth=1;shadow=0;" vertex="1" parent="WIyWlLk6GJQsqaUBKTNV-1">
          <mxGeometry x="353.5" y="150" width="120" height="40" as="geometry" />
        </mxCell>
        <mxCell id="Pnqbn7wbbDNNJb0yD08k-5" value="추천 목록" style="rounded=1;whiteSpace=wrap;html=1;fontSize=12;glass=0;strokeWidth=1;shadow=0;" vertex="1" parent="WIyWlLk6GJQsqaUBKTNV-1">
          <mxGeometry x="479" y="230" width="120" height="40" as="geometry" />
        </mxCell>
        <mxCell id="Pnqbn7wbbDNNJb0yD08k-28" value="" style="edgeStyle=none;curved=1;rounded=0;orthogonalLoop=1;jettySize=auto;html=1;fontSize=12;startSize=8;endSize=8;" edge="1" parent="WIyWlLk6GJQsqaUBKTNV-1" source="Pnqbn7wbbDNNJb0yD08k-7" target="WIyWlLk6GJQsqaUBKTNV-7">
          <mxGeometry relative="1" as="geometry" />
        </mxCell>
        <mxCell id="Pnqbn7wbbDNNJb0yD08k-7" value="회원 정보 조회" style="rounded=1;whiteSpace=wrap;html=1;fontSize=12;glass=0;strokeWidth=1;shadow=0;" vertex="1" parent="WIyWlLk6GJQsqaUBKTNV-1">
          <mxGeometry x="529" y="150" width="120" height="40" as="geometry" />
        </mxCell>
        <mxCell id="Pnqbn7wbbDNNJb0yD08k-44" value="" style="edgeStyle=none;curved=1;rounded=0;orthogonalLoop=1;jettySize=auto;html=1;fontSize=12;startSize=8;endSize=8;" edge="1" parent="WIyWlLk6GJQsqaUBKTNV-1" source="Pnqbn7wbbDNNJb0yD08k-9" target="Pnqbn7wbbDNNJb0yD08k-13">
          <mxGeometry relative="1" as="geometry" />
        </mxCell>
        <mxCell id="Pnqbn7wbbDNNJb0yD08k-50" value="" style="edgeStyle=none;curved=1;rounded=0;orthogonalLoop=1;jettySize=auto;html=1;fontSize=12;startSize=8;endSize=8;" edge="1" parent="WIyWlLk6GJQsqaUBKTNV-1" source="Pnqbn7wbbDNNJb0yD08k-9" target="Pnqbn7wbbDNNJb0yD08k-11">
          <mxGeometry relative="1" as="geometry" />
        </mxCell>
        <mxCell id="Pnqbn7wbbDNNJb0yD08k-77" value="" style="edgeStyle=none;curved=1;rounded=0;orthogonalLoop=1;jettySize=auto;html=1;fontSize=12;startSize=8;endSize=8;" edge="1" parent="WIyWlLk6GJQsqaUBKTNV-1" source="Pnqbn7wbbDNNJb0yD08k-9" target="Pnqbn7wbbDNNJb0yD08k-21">
          <mxGeometry relative="1" as="geometry">
            <mxPoint x="930" y="190" as="targetPoint" />
            <Array as="points">
              <mxPoint x="1030" y="190" />
            </Array>
          </mxGeometry>
        </mxCell>
        <mxCell id="Pnqbn7wbbDNNJb0yD08k-9" value="공연 예매" style="rounded=1;whiteSpace=wrap;html=1;fontSize=12;glass=0;strokeWidth=1;shadow=0;" vertex="1" parent="WIyWlLk6GJQsqaUBKTNV-1">
          <mxGeometry x="553" y="315" width="120" height="40" as="geometry" />
        </mxCell>
        <mxCell id="Pnqbn7wbbDNNJb0yD08k-53" value="" style="edgeStyle=none;curved=1;rounded=0;orthogonalLoop=1;jettySize=auto;html=1;fontSize=12;startSize=8;endSize=8;" edge="1" parent="WIyWlLk6GJQsqaUBKTNV-1" source="Pnqbn7wbbDNNJb0yD08k-11" target="Pnqbn7wbbDNNJb0yD08k-25">
          <mxGeometry relative="1" as="geometry" />
        </mxCell>
        <mxCell id="Pnqbn7wbbDNNJb0yD08k-11" value="후기 작성" style="rounded=1;whiteSpace=wrap;html=1;fontSize=12;glass=0;strokeWidth=1;shadow=0;" vertex="1" parent="WIyWlLk6GJQsqaUBKTNV-1">
          <mxGeometry x="553" y="400" width="120" height="40" as="geometry" />
        </mxCell>
        <mxCell id="Pnqbn7wbbDNNJb0yD08k-47" value="" style="edgeStyle=none;curved=1;rounded=0;orthogonalLoop=1;jettySize=auto;html=1;fontSize=12;startSize=8;endSize=8;" edge="1" parent="WIyWlLk6GJQsqaUBKTNV-1" source="Pnqbn7wbbDNNJb0yD08k-13" target="Pnqbn7wbbDNNJb0yD08k-19">
          <mxGeometry relative="1" as="geometry" />
        </mxCell>
        <mxCell id="Pnqbn7wbbDNNJb0yD08k-48" value="" style="edgeStyle=none;curved=1;rounded=0;orthogonalLoop=1;jettySize=auto;html=1;fontSize=12;startSize=8;endSize=8;" edge="1" parent="WIyWlLk6GJQsqaUBKTNV-1" source="Pnqbn7wbbDNNJb0yD08k-13" target="Pnqbn7wbbDNNJb0yD08k-15">
          <mxGeometry relative="1" as="geometry" />
        </mxCell>
        <mxCell id="Pnqbn7wbbDNNJb0yD08k-13" value="공연 결제" style="rounded=1;whiteSpace=wrap;html=1;fontSize=12;glass=0;strokeWidth=1;shadow=0;" vertex="1" parent="WIyWlLk6GJQsqaUBKTNV-1">
          <mxGeometry x="729" y="315" width="120" height="40" as="geometry" />
        </mxCell>
        <mxCell id="Pnqbn7wbbDNNJb0yD08k-51" value="" style="edgeStyle=none;curved=1;rounded=0;orthogonalLoop=1;jettySize=auto;html=1;fontSize=12;startSize=8;endSize=8;" edge="1" parent="WIyWlLk6GJQsqaUBKTNV-1" source="Pnqbn7wbbDNNJb0yD08k-15" target="Pnqbn7wbbDNNJb0yD08k-24">
          <mxGeometry relative="1" as="geometry" />
        </mxCell>
        <mxCell id="Pnqbn7wbbDNNJb0yD08k-15" value="예매내역 확인" style="rounded=1;whiteSpace=wrap;html=1;fontSize=12;glass=0;strokeWidth=1;shadow=0;" vertex="1" parent="WIyWlLk6GJQsqaUBKTNV-1">
          <mxGeometry x="889" y="315" width="120" height="40" as="geometry" />
        </mxCell>
        <mxCell id="Pnqbn7wbbDNNJb0yD08k-42" value="" style="edgeStyle=none;curved=1;rounded=0;orthogonalLoop=1;jettySize=auto;html=1;fontSize=12;startSize=8;endSize=8;" edge="1" parent="WIyWlLk6GJQsqaUBKTNV-1" source="Pnqbn7wbbDNNJb0yD08k-17" target="Pnqbn7wbbDNNJb0yD08k-9">
          <mxGeometry relative="1" as="geometry" />
        </mxCell>
        <mxCell id="Pnqbn7wbbDNNJb0yD08k-54" value="" style="edgeStyle=none;curved=1;rounded=0;orthogonalLoop=1;jettySize=auto;html=1;fontSize=12;startSize=8;endSize=8;exitX=0.5;exitY=1;exitDx=0;exitDy=0;" edge="1" parent="WIyWlLk6GJQsqaUBKTNV-1" source="WIyWlLk6GJQsqaUBKTNV-11" target="Pnqbn7wbbDNNJb0yD08k-20">
          <mxGeometry relative="1" as="geometry" />
        </mxCell>
        <mxCell id="Pnqbn7wbbDNNJb0yD08k-17" value="공연 목록 조회" style="rounded=1;whiteSpace=wrap;html=1;fontSize=12;glass=0;strokeWidth=1;shadow=0;" vertex="1" parent="WIyWlLk6GJQsqaUBKTNV-1">
          <mxGeometry x="379" y="315" width="120" height="40" as="geometry" />
        </mxCell>
        <mxCell id="Pnqbn7wbbDNNJb0yD08k-19" value="외부 결제 시스템" style="rounded=1;whiteSpace=wrap;html=1;fontSize=12;glass=0;strokeWidth=1;shadow=0;" vertex="1" parent="WIyWlLk6GJQsqaUBKTNV-1">
          <mxGeometry x="729" y="410" width="120" height="40" as="geometry" />
        </mxCell>
        <mxCell id="Pnqbn7wbbDNNJb0yD08k-20" value="후기 조회" style="rounded=1;whiteSpace=wrap;html=1;fontSize=12;glass=0;strokeWidth=1;shadow=0;" vertex="1" parent="WIyWlLk6GJQsqaUBKTNV-1">
          <mxGeometry x="179" y="450" width="120" height="40" as="geometry" />
        </mxCell>
        <mxCell id="Pnqbn7wbbDNNJb0yD08k-21" value="예매자 조회" style="rounded=1;whiteSpace=wrap;html=1;fontSize=12;glass=0;strokeWidth=1;shadow=0;" vertex="1" parent="WIyWlLk6GJQsqaUBKTNV-1">
          <mxGeometry x="737" y="17" width="120" height="40" as="geometry" />
        </mxCell>
        <mxCell id="Pnqbn7wbbDNNJb0yD08k-22" value="공연 삭제" style="rounded=1;whiteSpace=wrap;html=1;fontSize=12;glass=0;strokeWidth=1;shadow=0;" vertex="1" parent="WIyWlLk6GJQsqaUBKTNV-1">
          <mxGeometry x="179" y="68" width="120" height="40" as="geometry" />
        </mxCell>
        <mxCell id="Pnqbn7wbbDNNJb0yD08k-23" value="공연 수정" style="rounded=1;whiteSpace=wrap;html=1;fontSize=12;glass=0;strokeWidth=1;shadow=0;" vertex="1" parent="WIyWlLk6GJQsqaUBKTNV-1">
          <mxGeometry x="179" y="-32" width="120" height="40" as="geometry" />
        </mxCell>
        <mxCell id="Pnqbn7wbbDNNJb0yD08k-24" value="예매 취소" style="rounded=1;whiteSpace=wrap;html=1;fontSize=12;glass=0;strokeWidth=1;shadow=0;" vertex="1" parent="WIyWlLk6GJQsqaUBKTNV-1">
          <mxGeometry x="889" y="230" width="120" height="40" as="geometry" />
        </mxCell>
        <mxCell id="Pnqbn7wbbDNNJb0yD08k-55" style="edgeStyle=none;curved=1;rounded=0;orthogonalLoop=1;jettySize=auto;html=1;exitX=0;exitY=0;exitDx=0;exitDy=0;fontSize=12;startSize=8;endSize=8;" edge="1" parent="WIyWlLk6GJQsqaUBKTNV-1" source="Pnqbn7wbbDNNJb0yD08k-25">
          <mxGeometry relative="1" as="geometry">
            <mxPoint x="469" y="360" as="targetPoint" />
          </mxGeometry>
        </mxCell>
        <mxCell id="Pnqbn7wbbDNNJb0yD08k-25" value="후기 기반 알고리즘" style="rounded=1;whiteSpace=wrap;html=1;fontSize=12;glass=0;strokeWidth=1;shadow=0;" vertex="1" parent="WIyWlLk6GJQsqaUBKTNV-1">
          <mxGeometry x="553" y="490" width="120" height="40" as="geometry" />
        </mxCell>
        <mxCell id="Pnqbn7wbbDNNJb0yD08k-29" style="edgeStyle=none;curved=1;rounded=0;orthogonalLoop=1;jettySize=auto;html=1;exitX=0.25;exitY=1;exitDx=0;exitDy=0;fontSize=12;startSize=8;endSize=8;" edge="1" parent="WIyWlLk6GJQsqaUBKTNV-1" source="Pnqbn7wbbDNNJb0yD08k-17" target="Pnqbn7wbbDNNJb0yD08k-17">
          <mxGeometry relative="1" as="geometry" />
        </mxCell>
        <mxCell id="Pnqbn7wbbDNNJb0yD08k-33" style="edgeStyle=none;curved=1;rounded=0;orthogonalLoop=1;jettySize=auto;html=1;exitX=0.5;exitY=0;exitDx=0;exitDy=0;fontSize=12;startSize=8;endSize=8;" edge="1" parent="WIyWlLk6GJQsqaUBKTNV-1" source="Pnqbn7wbbDNNJb0yD08k-17" target="Pnqbn7wbbDNNJb0yD08k-17">
          <mxGeometry relative="1" as="geometry" />
        </mxCell>
        <mxCell id="Pnqbn7wbbDNNJb0yD08k-65" style="edgeStyle=none;curved=1;rounded=0;orthogonalLoop=1;jettySize=auto;html=1;exitX=0.75;exitY=1;exitDx=0;exitDy=0;entryX=0.149;entryY=0.086;entryDx=0;entryDy=0;entryPerimeter=0;fontSize=12;startSize=8;endSize=8;" edge="1" parent="WIyWlLk6GJQsqaUBKTNV-1" source="Pnqbn7wbbDNNJb0yD08k-5" target="Pnqbn7wbbDNNJb0yD08k-9">
          <mxGeometry relative="1" as="geometry" />
        </mxCell>
        <mxCell id="Pnqbn7wbbDNNJb0yD08k-80" style="edgeStyle=none;curved=0;rounded=0;orthogonalLoop=1;jettySize=auto;html=1;exitX=0.75;exitY=0;exitDx=0;exitDy=0;entryX=0;entryY=0.5;entryDx=0;entryDy=0;fontSize=12;strokeColor=default;" edge="1" parent="WIyWlLk6GJQsqaUBKTNV-1" source="Pnqbn7wbbDNNJb0yD08k-69" target="WIyWlLk6GJQsqaUBKTNV-3">
          <mxGeometry relative="1" as="geometry" />
        </mxCell>
        <mxCell id="Pnqbn7wbbDNNJb0yD08k-69" value="user" style="shape=image;verticalLabelPosition=bottom;labelBackgroundColor=default;verticalAlign=top;aspect=fixed;imageAspect=0;image=data:image/png,iVBORw0KGgoAAAANSUhEUgAAAgAAAAIACAYAAAD0eNT6AAAACXBIWXMAANH5AADR+QGceVN3AAAAGXRFWHRTb2Z0d2FyZQB3d3cuaW5rc2NhcGUub3Jnm+48GgAAIABJREFUeJzt3Xm0XlV98PFvbuaQAJkgDGZQ5iGIMgmIiCAgIjhQrVrqSN9aK7r6Wt6ltkW0b33t4NiitXVVtCpoQUQRHBAhyDxPkSkhKBBCIAOZk3vfP/a9con33jz3uefs3znn+X7W+q3ELJb7/M6zz977nLPP3iBJkiRJkiRJkiRJkiRJkiRJkiRJkiRJkiRJkiRJkiRJkiRJkiRJkiRJkiRJkiRJkiRJkiRJkiRJkiRJkiRJkiRJkiRJkiRJkiRJkiRJkiRJkiRJUrlGRR+ApMJNAaYDM4EZvX+fBOwAdAFjev+b/lYBW4BuYCWwFngaWA4s6/1zdYZjl5SJAwCpfiYC+wN7AHOBeb1/zgXmAONLKncD8CiwGFjU++di4CHgXmBdSeVKKoEDAKnadgYOA+b3xkGkjn905EENYAvwIHAXcCdwN3ATsDTyoCQNzgGAVC0vBo4Gjur9c1/qfZ0+ASwAruv983bSawZJkjraDOCPgW8CTwE9DY+lwDeAt5HmJkgKUuc7C6mu9gfeBLwOOJTqPc7PZQvpNcHlwMXAfbGHI0lS8eYCZ5Meg0ffhVc17gXOBfZu6wxLklQR04GPkN57R3eudYtbSQOmacM+65IkBXk58FVgDfEdad1jPXARcDy+spQkVdAU0h3rQuI7zabGQuBDwOQWfxNJkkqzM+m99XLiO8hOiZXAF4Ddt/3zSJJUrP2A/yKtjhfdIXZqrAe+Duwz9E8lSdLIzSW9399MfAdopNhCmiew5+A/myRJ7ZlN6vg3Ed/hGQPHRuAC4CWD/IaSJLVsKvB5fNRfp9gA/DOw4wC/pyRJQ+oCziQtXRvdoRntxXLSlxmdutKiJGmYjiPtahfdgRnFxB3AsUiSNIippPf80R2WUU5cRNp8SZKk3zuDztiNr9NjKenVjiSpw80Gfkx8x2TkjctwISFJ6lhnAM8Q3xkZMbESeCeSpI6xPb7rN56Pi0jzPyRJDXY48BDxnY5RrVgMvBJJUuOMAs7BJXyNwWMT8L9x22FJaozJwPeI72CMesSlwA5IkmptL+Ae4jsVo16xkLTjoySpht5Amukd3ZkY9YyVwClIkmrlLNy5zxh5bAb+EqmB3CRDTTMa+BzwadKGPnqhHmAFsB5YBawhDZTWAxNwAtzWuoCTSZ+O/px0/qRG8GJXk0wCvg2cFn0gAdYCD5A+Z1sMLAKWAE+TdsXriy3b+P8ZDUwnrZk/vTdmA/N6Yy6wJ+lcd5qLSQsHrYs+EKkIDgDUFDsClwOviD6QDFYAvwZuI+1aeCdpbYPuTOWPBvYA5gMHAS8DjqQzZs4vAF5Pmh8gSQo2g9QZRr8vLiuWkZ5s/BlwANV8tdEFHAj8OfAd0pOH6PNWVtxCejIiSQq0C3Av8Z1CGZ3MJ0krF9Zxrs5o0tOY82jm4OxuYFZhZ0uSNCyzgQeJ7wyKijuBj5MerzfNnsAnSB1n9HkuKh4AXlTkSZIkbduuNGNN/2eAL5Ien3eK+cCXgGeJP/8jjQdJT6EkSRnMBO4jvvEfSdwInAlMLPjc1MlE4E+Bm4j/PUYS95DmoUiSSrQD6f14dKPfTmwBLgOOL/ys1N/RpG1567pZ0x24pbAklWYKcAPxjf1wYzPwDdK+BBraPsA3SYOl6N9tuHEdsF3xp0SSOtto0i5t0Y38cKKbdMc/v4Tz0XT7AhdQv4HAj4ExJZwPSepYXyG+cR9O/IK0SI5G5mDgauJ/z+HEl8s4EZLUif6a+Ea91VhCmtynYp0KPEz879tqfKSc0yBJneMM6vEYeD3wN8D4ck6DSJsVfRLYQPzvva3YAryxnNMgSc03n7RbXXRjvq24DtivpHOgP3QAcD3xv/u2Yi3pFYYkaRimUf1HvmtJe8VXcW3+pusCPkz6DaLrwVDxIGmjKklSC7pIO/tFN95Dxd04u78K9gVuJ74+DBWX4SBRklryKeIb7cGiG/hHfNdfJROAz5F+m+j6MVj8bWnZS1JDnEx1G/IVpNnoqqY3AiuJrycDxRZcAVKSBjUTeIL4xnqgWEh63Kxq25Pq7jj4O9wzQJL+wCjgR8Q30gPFxcDk8lJXwaYAPyC+3gwUl5SYtyTV0geJb5wHii/gBK46GgWcS3z9GSjOKi9tSaqX/aje51ybgb8oM2llcTbV22HwOWDvMpOWpDroonqLumwA3lRm0srqDKq3euC1+GRJUoc7m/jGuH+sB95QasaKcDLVe8r056VmLEkVNhdYTXxD3BergWNLzFexjqNa9W0lsHupGUtSRV1BfCPcF2ux8+8ER5HewUfXt774cbnpSlL1vJ34xrcv1gMnlpuuKuR1VGtOwFvKTVeSqmM74DHiG94eYBNwernpqoLeTHW+DlgETCw3XUmqhvOIb3T7wolYnet9xNe/vvhEyblKUrgXAWuIb3B7gL8vOVdV32eJr4c9pGtidsm5SlKoC4lvbHt6j8PvsDUK+Bbx9bEH+GbJuUpSmMOoxk5/N5O2kJUgvX+/jfh62Q28rORcJSnElcQ3ssuBeWUnqtqZAywjvn5eVnaikpTbUcQ3rpvxcz8N7jVU48uAI8pOVJJyupr4hvXjZSep2juX+Hr6s7KTlKRcjie+Ub0WGF12oqq9McB1xNfXY0vOU5KyuJrYxnQFad8BqRXzSOv0R9bZn5aepSSV7BDi76beXnqWapozia+3Ly09S0kq0XeJbUTdbEXt+iGxddd1ASTV1hzSWvtRDehK0sqDUjtmA6uIq78bcXVASTX1OWLvoP5X+Smq4T5EbB3+p/JTlKRibUfsRKqbcKlfjVwXsasEPgtMKj1LSSrQe4lrNLuBo8tPUR3iSGKXsP7T8lOUpOLcQFyD+a0M+amzRG5itSBDfpJUiPnENZZrceKfijcHWEdcvd6v/BTVaXxHqjK8P7DsfwMeCyxfzfQo8O+B5b8vsGxJask44Bli7pJWAzPLT1Edahawhpi6vYy0TLFUGJ8AqGgnAlODyv4iqaGUyvAk8K9BZc8g7VYoSZV1AXF3/9My5KfONoO4pwBfz5CfJLVlAmnjnYjG8fMZ8pMAvkxMHX8WGJ8hP0katjcS0zBuBl6SIT8J0m6Bm4mp66/PkJ86hHMAVKS3BJX7P8DDQWWr8ywCLgkq+4ygciVpUKOB5cTcFbnqn3I7hpi6/hTeuEmqmCOJaRDvA0ZlyE/a2r3E1PlDcySn5nMkqaKcHFTuV0mNopRb1Kz8qGtNkgZ0M/nvhNbhp3+KMwNYT/56f32O5CSpFTsDW8jfEH4/R3LSEH5A/nq/mTT4kEbEVwAqwquIqUvfDShT6u/CgDJHkyYhSiPiAEBFOCqgzDXATwLKlfr7Iaku5hZxzalhHACoCEcGlBnV8Er9rQEuDyjXAYCkcNsBm8j/HvStOZKTWvBO8tf/jcCkHMlJ0mBeQ8wkqOk5kpNaMIOYSbDHZshNDeYrAI3UEQFl3khadVCqgqeBWwLKfUVAmWoQBwAaqYMCyrwioExpKBF1MuLaU4M4ANBIRTRCvwgoUxrKVQFlHhhQpiQBMJH826KuBybkSE4ahonABvLPhZmYIzk1k08ANBIHkhYlyekW0iBAqpJ1wG2ZyxwN7Ju5TDWIAwCNRMQjyF8HlCm14rqAMucHlKmGcACgkdgroMybAsqUWhFRNyOuQTWEAwCNxLyAMu8MKFNqxd0BZUZcg2oIBwAaidyNzxrg4cxlSq16gDQXIKe5mctTgzgA0EjMzVzePUB35jKlVm0B7stcpk8A1DYHAGrXZPLvSZ67cZWGK3cd3Ym0H4c0bA4A1K65AWUuCihTGo7cdXQUMCdzmWoIBwBq184BZToAUNVF1NGdAspUAzgAULtyP/4HWBxQpjQcEQOAiGtRDeAAQO2aFlDmowFlSsOxOKBMt8ZWWxwAqF0zA8pcFlCmNBxPBZTpEwC1xQGA2pX7ruM53ANA1beO/GsB+ARAbXEAoHbtmLm85ZnLk9r1dObypmYuTw3hAEDtGp+5PAcAqovcddXtsdUWBwBqV+4BwJrM5Untyl1Xx2UuTw3hAEDtyt3obMhcntSujZnLyz0YV0M4AFC7cjc6uRtVqV25B6s+AVBbHACoXT4BkAaWu676BEBtcQCgduWuO+4CqLrYkrm80ZnLU0M4AFC7NmUuz8ecqovcd+Q+HVNbHACoXb7nlAbm/BjVggMAtcuZztLAnB+jWnAAoHblbnRc7ER1kbuu+gRAbXEAoHblbnRc7lR1kXunTJ8AqC0OANSu1ZnLc8MT1UXuAUDua1EN4QBA7cq93vk0rK+qvjHkf1qVe/MhNYQNqtqVu9HpwtcAqr6pwKjMZbpRltriAEDtimh0dgsoUxqO3QPK9AmA2uIAQO2KaHTmBpQpDce8gDIdAKgtDgDUrognABGNqzQcEXX0mYAy1QAOANSu3waUOTegTGk4IgYASwLKVAM4AFC7ngDWZy5zr8zlScO1Z+by1gFPZS5TDeEAQO3qJv+dx/zM5UnDlbuOLgZ6MpephnAAoJFYlLm83XFBIFXXTGBW5jJzX4NqEAcAGonFAWUeGFCm1IqDAsp0AKC2OQDQSDwcUObBAWVKrYgYADwSUKYawgGARuKegDKPDChTasXRAWXeHVCmJLEbaQJSzngyS2bS8IwClpL/etg5R3KSNJBl5G/0XpwlM6l1e5P/OvDzP42IrwA0UhGPIF8ZUKY0lIjH/3cFlKkGcQCgkYpohE4MKFMaykkBZd4RUKYaxAGARurWgDJfC4wOKFcayBjg+IBybwsoU5J+bx753332AEfkSE5qwSuJuQZm50hOzeUTAI3UIuDxgHJPCShTGsjrAsp8DDcB0gg5AFARrgso84yAMqWBvCWgzGsDylTDOABQESIGAHsTs/Ka1N8hwB4B5UZcc2oYBwAqQtTdyFuDypX6/FFQuQuCypWkF+giZhW0R0grsEkRuoBHyV/vf4f1XgXwCYCK0A1cGVDuPOC4gHIlSJ+jRszEv4I0EJBGxAGAivKToHLfH1SuFFX3oq41SRrQNGAz+R+HbgB2ypCf1N/OwEby1/dNwI4Z8lMH8AmAivIMcFNAueOA9wSUq872XmBsQLnXAysCypWkIf01+e+I+iZFjcuQnwQwnrT4VURd/0iG/CRp2GaTJgRGNIzvKj89CUh3/xF1vBuX/5VUYTcQ0zjejZ9GqXyjgHuJqePXZMhPHcQ5ACrahUHlHgCcGlS2Oscbgf2Cyr4oqFxJasmuwBZi7pDuwkGtytMF3EFM3d5CurYkqdKuIqaR7MFNglSePyauXkcstCVJwxbZUN4LjC4/RXWYMcBCHNhK0pDGAU8R11j+WfkpqsN8kLj6vIz06aEk1cK/ENdgLietTCgVYSqpE46qz58tP0VJKs4+xK0J0EMagEhF+BJx9bgH2Lf8FCWpWFcT12huBPYvPUM13XzS+vtR9fiq8lOUpOK9gdg7pxtwQqDa1wX8mtg6/LrSs5SkEowC7iO2Af1g6VmqqT5CbN29H9e1kFRj7ye2EV2F66dr+OYCzxFbd99ddpKSVKbxwBPENqTX4KsAta6L2MWsenCHS0kN8TFiG9Me4JzSs1RTfJz4+vrR0rOUpAwmA0uJbVA3AYeXnahq7xDSFySRdfUp0jUjSY3wUeLvqh4Ediw7UdXWVOBh4uvph8tOVJJymkh6rxnduF6GM6v1h7qAHxNfPx8nXSuS1ChnE9/A9gB/W3aiqp3ziK+XPcCfl52oJEWYACwivpHdApxacq6qj9NIdSK6Xj6IM/8lNdhbiG9oe4A1wGEl56rqeznx3/v3xRtKzlWSwv2S+Ma2h/S+dU7Juaq65hK/RkVf/KLcVCWpGl4KbCa+0e0B7ibN/lZnmU78MtV9sQk3rpLUQb5KfMPbFzcCU8pNVxWyPXAT8fWuL75YbrqSVC0zSAueRDe+fXE1MKnMhFUJk4Bria9vffEEPoGS1IHeTnwD3D+uwG+wm2wS8FPi61n/OKPUjCWpwi4lvhHuH78iPSJWs2wH/Jz4+tU/flRqxpJUcbNJW/ZGN8b942bSJDE1w1TgeuLrVf9YCexeZtKSVAd/QXyDvHXcAexWZtLKYnfgLuLr09bxZ2UmLUl1MYr0ODS6Ud46fgccXGLeKteBwBLi69HW8RNSnZckATsBTxLfOG8dq4HXlZi3ynEC6TF7dP3ZOpYCs0rMW5Jq6WSgm/hGeuvYBJyDd211cRawkfh6s3V0A68vMW9JqrXziW+oB4vvkGaTq5omAxcRX08Gi8+Xl7ok1d8k0gS86MZ6sLgb2Ke07NWu/anO0r4DxS2k3TAlSUOYAywjvtEeLNYBZ+Mrgao4k7S7Y3S9GCyWA/NKy16SGuZkqrFH+1DxA9KSxoqxE3AZ8fVgqNhMmpAoSRqGvyW+AW/l7u6ssk6ABnUG1dpLYrD4P2WdAElqsi7gEuIb8VbiR8CLyjkN6mcu6Tv66N+7lfg+viaSpLZtR7W2bh0qVpE+FxxfypnobBOAjwHPEf87txI34MZSkjRiM4EHiW/UW40lpIlpKsapwMPE/66txiPAzqWcCUnqQPsBzxLfuA8nfgkcWcbJ6BCvJO3OGP07DieW42eiklS4VwPriW/khxuXA4eUcD6a6jDgSuJ/t+HGOuCYEs6HJAk4jWou87qt6CYNBI4r/pQ0xvHAFcT/Vu3ERlzmV5JK98ek76ujG/1249beHMYWfWJqaBzwduA24n+XdmMz8EdFnxhJ0sD+lOovFLSteAb4KmkZ206zJ/AZ0u540b/DSKIbeH/B50aStA0fpJq7B7bTiVwFvBeYVugZqpbppM7yaprzu32gyBMkSWrd+6n/k4D+sRH4MekJx8wCz1OUnYB3keY/1HHuxmCxmTRgkyQFegewifhOoejYAtwInAscAYwp6HyVaQzp08fzgJtp1uCsLzYCbyvqhElRXKZSTfFG4Ds0exW+NaQBwQLg16QtZpeHHlF6rH8oqdM/GjictKVzU20gTfj7YfSBSCPlAEBN8lrS+utTog8ko8eBu4E7gYXAot74LenuuwhjgN1JW9rOIy10Mx84ENi1oDLqYCXwZuAX0QciFcEBgJpmPukd+u7RBxJsE/AEsAx4mvSkYDmwlvQYe8VW//2OpPZgEumufjppq+OZwC74yeIS4BTgnugDkSQNbhfS4/Hod8VGM+JOHFBKUm1MIT0JiO48jHrHZcBkpAYaHX0AUkk2AheSGvFj8HWXhqcH+CxwFmninySphk6lfjsJGnGxijTZT5LUAHuRZstHdy5GtWMhaetpSVKDTAG+RXwnY1QzvoHv+yWp0c4gbcQT3eEY1YiVwDuRJHWE2cCviO98jNi4HngxkqSOMhr4BLCe+I7IyBvrgY/hl1CS1NH2AH5JfKdk5InrcKKfJKnXKNI336uI76CMcmIlcDbQhSRJW5kNXEx8Z2UUG9/D5XwlSS14NXAH8R2XMbK4DzgRSZKGoQs4E1hKfEdmDC+Wkx73O8lPktS2qcA/AM8R37EZQ8dq4NOk7Y0lSSrEDOAzwFriOzrjhbEe+Cowa9BfT5KkEdoV+DKwjviOr9NjLfBFYJchfzFJkgo0EzgXWEZ8R9hpsYz0NMaOX5IUZjxpsuD9xHeMTY+HSZP7JrX0y0iSlEEXcDxwEbCR+M6yKbEZ+BlpE6cxLf8akiQFmAWcAzxEfAda13iQ9IrlRcM79ZIkxRsFHA18CXiC+E616vE48AXgqN5zJ0lS7Y0mrTD4FeAp4jvbqsRS4HzgWFynX8rGEbYUows4mDRn4HjgVcDY0CPKpxu4Hfg58CPg173/JikjBwBSNcwATgCOIb0y2I/m3A13A/cCC4BrSBP6locekSQHAFJFTQWOJL0LPww4iDRIqIOngTuBG0l399cBK0KPSNIfcAAg1ceuwIGkwcABwB7APOKWv30CWEz60uFuUqd/d++/S6o4BwBS/U0kDQTmArNJKxTOAKb3xgxgWu9/uz1pMuJYYHLvvz0HbAK2AKt6/215v3i6989lwBJgEanjX1daRpIkSZIkSZIkSZIkSZIkSZIkSZIkSZIkSZIkSZIkSZIkSZIkSZIkSZIkSZIkSZIkSZIkSZIkSZIkSZIkSZIkSZIkSZIkSZIkSZIkSZIkSZIkSWqaUdEHIGlYpgM79cYuwAxgCrBDb0zpF9sDO/L8dT4emNTv/6vv72v7/dtaYEPv33uAFcAqYHW/WNkbq4FlwBO9fy4FnikkS0mlcwAgVccMYO4AsQuwMzATGBdxYMOwkTQYeJI0MFg8QCyPODBJL+QAQMprErBPb+zf++depI5+ctxhZbWaNBB4AFgI3Afc3/v3dXGHJXUWBwBSOUYBewIvBw4mdfb7AnOArsDjqrJu0sDgfuBe4HbgVuAh0usISQVyACCNXBfPd/Z9cTDpHbxGbiXPDwb64kEcFEgj4gBAGr4xwEHA0cBRwHGkyXnKZzVwI3AdsKA31ocekVQzDgCkbZsEvLJfHAZMCD0ibW0dcDNwDXBtbzifQBqCAwBpYC8GjgdO7f3TDr9e1pOeCvy8N27DVwbSCzgAkJJpwMnAicAJwKzYw1HBngB+2htX4HoFkgMAdbTZwEmku/wTgbGxh6NMtgA3AJcBF5MmFEodxwGAOs1BwOnAaaSZ+tJtwA+AS4G7go9FysYBgDrBHOBtwLuBvYOPRdW2ELgQ+DZpoSJJUs1MB84iTQTrJk0AM4zhxL3AOTgfRJIqbwLwTuBnwGbiOxCjGbEZuBJ4O34NIkmVsi/wGdImNNGdhdHsWAF8FXgpkqQQU4AzSXf70Z2C0ZlxC+k1U6ds4iRJofYBzictBRvdARhGD7AK+DJpV0dJUoFGkVbjuwwn9BnVjW7SE6lT8QsrSRqRCaTH/PcQ37gbxnDiAeBsYDskSS2bAXyKtFxrdENuGCOJ5cAncbdISRrSzqTZ/M8R33AbRpHxHPAFYHckSb83j9Q4riO+oTaMMmMDcAGuSCmpw+0J/Dcu2mN0XmwCvgnsgSR1kN1Ji6lsIr4hNozI2Eh6IjAPSWqwGaR3/GuJb3gNo0qxgTQodt8BSY2yPWlWv4v3GMbQsYr01cAUJKnGukjf8T9JfMNqGHWKp0nrCIxGkmrmOOAO4htSw6hz3AechCTVwJ7ARcQ3nIbRpPgZsB9SgVyvWkWZDJwLfAgYG3soGsQG0gTMPut6/5zY798mAeOzHZGGYyNpvYxPAmuCj0UN4ABARTgd+CLwougDabhNwFPAUtK8imW9/7vv76t7Y0W/vz/X+2c7ppAGdlN6Y8d+f58J7ALs1Pv3Wb1/3wkHgGVbQhpoXxp9IKo3BwAaiTnAl0i7n6kYj5M2klncG4v6/f13wJaYw2rZaGA3YG5vzOv3972AXWMOq5EuJQ0ElkQfiOrJAYDaMRb4MPB3uNtZux4B7gXuBxaSJnstBFZGHlQGOwD7APuTlsPdt/fvL448qBpbQ3r19nnSippSyxwAaLheDnwdmB99IDXRAzwI3NYvbiU9ptfzpgIv6xcvJy2TaxvVmjuBdwO3Rx+IpOYZR1rMx+V7h441wFXAecCJpEWQ1J7tSefwPNI5dZfIoWMjaYLguHZOtiQN5GXAXcQ3cFWM1cAPgY8Ah+MEuDKNAQ4jnetLSavmRf/+VYw7gJe2eY4lCUid2Tmkz8eiG7WqxBbgFtKeBsfjJ3ORRpNeFZxD+k5+I/H1oyqxiVRHfRogadj2J71XjG7IqhDPAt8G3gpMG8lJVammAmeQttldTny9qULcTppoKUktORPftz5K2p3tVLyLqqPRwNGku+CFxNenyFhH2ldAkgY1DbiE+AYrKpYA/0h6rKxmOQj4v6R1FaLrWVR8n/SURJJe4FjgMeIbqdzxDHAB6U7fndc6w/6kJwOPE1//cscS4JiRn0JJTTCa9JnVZuIbp1yxEbgYeD3O2u9ko4ETSPM71hFfL3PFZtIiXl0jP4WS6mo6cCXxDVKu+A1pxvjORZw8NcoOwFmkRZqi62muuIq0d4OkDnMoaaJbdCNUdqwnPeJ/Ja4qp9YcAnyFtMZDdP0tOxbhnBepo5xJ2hY2uvEpM54kvefdraBzps6zPempwP3E1+cyY31vnpIabALwNeIbnDLjFlJjNqGgcyZ1kRZ9ugzoJr6OlxUXABMLOmeSKmRX4GbiG5kyopvUOB9Z2NmSBrY/8A2au+rgDcCsws6WpHDzaeb7/i2kjv+Q4k6V1JI5wBdImz9FXwdFx29J+39IqrnTaN5kpvWkSVovKfA8Se2YCXyatFx09HVRZKwifSYrqabOJt0lRzcmRcUW4CLgxUWeJKkAU0ifmK4g/jopKrqBcws8R5IyGAv8B/ENSJEd/7eAPYo8SVIJZgCfpVmvBr5K2opZUsVtB1xOfKNRVFwCHFDoGZLKN4s0R6ApW2n/CJhU6BmSVKipwALiG4si4lbgVcWeHim72aTP65rw+eCNpCcckipmV+Au4huJkcbvSN/xuzGPmuQw4Frir6+Rxn3Aiwo+N5JGYH/qv5PfGtIGJT5mVFONAt4GLCb+ehtJPArsW+ypkdSOVwDLiW8URhKXkr6rljrBROBTpM9Zo6+9duNp0lMNSUGOJn2vG90YtBu/Je1LIHWiPYCfEH8dthvPAccWfVIkbdsx1HeBn02kGdJTCj8rUv2cSn1X6nwOOK74UyJpMCdQ3++MbyUtTSzpeVOAL1PPrwWeA15d/CmRtLUTqedWvhtJ2/OOK/6USI1xFLCQ+Ot1uLGGdGMiqSSnUM+JQzfjYj5SqyYC/wRsJv7aHU6sI92gSCrYa0gXWPRFPpzYCHwMlxGV2nE4cD/x1/FwYi0u4CUV6nDqN+FvEekTRUntm0iaMFunuQGrgEPLOBlSpzmQ+n3nfwEwuYyTIXWoE4HHib+2W41ngZeWciakDrEn8ATxF3OrsRJ4RylnQtJOwGXEX+etxlJg71LOhNRCssY9AAANvklEQVRwc4AlxF/ErcbNwNwyToSk3xsFfJg0vyb6mm8lFuPeAdKwTKNenwJdQHpXKSmPQ0jzbKKv/VbiPtJOpZK2YRzwC+Iv2lZiHfC+ck6DpG2YTn2WEv4VML6c0yA1wyjgm8RfrK3EozjTV4o2CjiHeqwZ8J3e45U0gM8Qf5G2Er8gvaaQVA0nkWbeR7cN24pPl3UCpDp7H/EXZyvxNWBsSedAUvv2JL1vj24jthUfKOsESHV0EmmHvOgLc6jYTJp9LKm6dgSuIL69GCo24b4BEpBG7VV/dLeatGWppOobTfVfJz4D7FHWCZDqYApwD/EX41DxBHBwWSdAUmneQ7WfLN4PbF9a9lKFjQK+R/xFOFQ8hKN0qc5eS1qbP7otGSwuwS8D1IHOI/7iGypuAmaWlr2kXA4FniS+TRks/qa81KXqOZ1q7+71M9LrCUnNMI/qri7aDby5vNSl6tiTaj+SuxA/85OaaCZwK/FtzECxAnhxealL8cZT3QuwB/guMKa07CVF2wFYQHxbM1DcTFoKXWqkfyX+Ihss/hs7f6kTTAKuJL7NGSg+V2LeUpg3E39xDRZfA7rKS11SxYwDLia+7dk6uklzpKTGmEd1F/v5Cn6GI3WiscBFxLdBW8dyYHaJeUvZjCN9Uhd9UQ0UF+Cdv9TJxlLNJwG/xleSaoC/J/5iGiguwQtMUhoEXEp8m7R1/F2ZSUtlezmwkfgLaev4KemLBEmC9KTyMuLbpv6xibSIkVQ7k6jmwhu/6j02SepvAmkRsOg2qn/c23tcUq18kfiLZ6CLaWqZSUuqtUnAdcS3Vf3jn0rNWCrYcVRvqd/fAXPKTFpSI0wH7iO+zeqLLcCrSs1YKsj2wKPEXzT9YxXw0jKTltQos4HHiG+7+uJhYHKpGUsF+DLxF0v/2AicWGrGkppoP9I3+dFtWF/8S7npSiNzOOlxVfSF0j/eW2rGkprsKGAd8e1YD7CZ9GWVVDljgNuIv0j6x+dLzVhSJziD6sxpugPXL1EFfZT4i6N//BwvFEnFOJf4Nq0vPlxuqtLwzAZWE39h9MUi0t7fklSEUcC3iG/beoA1wNxSs5WG4UfEXxR9sRqYX266kjrQBOB64tu4HtLSxVK4U4m/GPrHW8tNV1IH2xn4LfHtXA9wcsm5SkMaB/yG+AuhL/613HQliSOA9cS3d/eTNjKSQvwV8RdBX9wFTCw3XUkC4C+Ib/N6gA+Vnag0kGlUZ5GM1cA+5aYrSS/wdeLbvmdISxdLWZ1PfOXvi3eUnKskbW0CcCvx7d8Xyk5U6u9A0qpU0RW/B/jPknOVpMHsQdprJLIN3AjsW3aiUp/Lie/4e0jf+29fcq6SNJQ/Ib4t9LNAZXEU8ZW9h7TnwLHlpipJLfkm8W3iEaVnqY53FfEVvQf4x7ITlaQWTSb+k+iflp6lOtoJxHf8PcC9pAk4klQVhwAbiG0bX116lupYNxDf+W8mXWiSVDWfILZ9XFB+iupEVVny93NlJypJbRoD3ERsG+kSwSrUKOB24jv/JcCUknOVpJE4kNhXAbeQ2mypEKcQ3/n3AKeVnagkFeDjxLaVJ5afojrFNcR3/t8vPUtJKkb0q4Cryk9RneAVxHf+q4Hdyk5Ukgp0IGmVvqh287DyU1TTXUr8AOBjpWcpScX7LHHt5v9kyE8Ntg9pxb3Izv8R/OZfUj1NIi1ZHtF2bgH2Kz9FNdV/EX/3/+ayk5SkEp1OXPv5HxnyUwPNIn5Vq6vLTlKSMvghMW3oemCnDPmpYaJXtNoCvLT0LCWpfHOANcS0pc6h0rCMAR4jdgDw36VnKUn5nEdMW7qE1KZLLXkTsZ3/ZmDv0rOUpHwmA48T06aeniE/NcTPiR0A/Hv5KUpSdu8hpk11q2C1ZE+gm7jOfx3wotKzlKT8ukhr9eduV7vxqapa8Hli7/4/X36KkhTmOGxbVUFjgWXE3v3PKj1LSYr1E/K3r8uB8TmSUz2dSuzd//nlpyhJ4V5OzKvWM3Ikp3r6LnGd/2bS/ANJ6gQ/IH87e3mWzFQ7k4hbqKIH+E75KUpSZRxE/r1WNgMzcySneol+/P+y8lOUpEq5iPxt7btyJKZ6OZ+4zv8nGfKTpKrZl/xPAS7JkplqZQlxA4DXZchPkqrof8jb3q7BrwHUz17Edf4PkRbHkKROdCj5292js2RWcXY8SWRlOJ/0OYwkdaKbgV9mLvNVmctThf0nMXf/a4FpGfKTpCo7kbxt75V50lId3E/MAODrOZKTpIobBdxOvrZ3eZ60VHUTSN+GRgwADsmQnyTVwTvJ2/7unictVdnLiOn8b8yRnCTVxHhgKfna4I7/+spJgHBgULlfCSpXkqpoA/CNjOXtl7GsSnIAAC8JKHM1ad8BSdLz/iNjWbMzllVJDgBgTkCZC0hb/0qSnvcAaVG2HBwARB9ABURUgmsDypSkOvhVpnIcAEQfQAVEzAS9JqBMSaqDXO1jx+8K6AAAdgwoc2FAmZJUB7/JVM72mcqpLAcA+SvBRuCZzGVKUl08mamcKXR4H9jRyQMTgXGZy+z7zlWS9IeWZipnFLBdprIqqdMHABFbQq4IKFOS6mIVbpCWRacPACLuxCcFlClJdTGBfH1TRw80HADkNyWgTEmqi8nRB9ApOn0AsCWgTAcAkjS4XAOAHmB9prIqqdMHAGuATZnLnAjsmrlMSaqLPTOVs4qYm8DK6PQBAMDKgDIPCihTkupgfqZyOn5CtgMAeDagzFwVXJLqJlf72PHrsTgAyLfoRH9HBJQpSXWQq33MtelQZTkAgMUBZb6WDl+AQpIGsB+wV6ayFmUqp7IcAMRUgknACQHlSlKVvTFjWYszllVJDgDg4aBy3xRUriRV1ekZy3JTNjGf9D1o7lgPzMqQnyTVwaHkbYN3zpOWqmwMsI6YQcAnM+QnSXXwPfK1vb/NlJNq4CZiBgBPkRYGkqRONg/YTL6297I8aVWbcwCSBUHlzgTODipbkqriXGB0xvKuzliWKu4UYp4A9JCWI55dfoqSVEmvIO3Kl7PdPThLZqqFKcBG4gYB3y4/RUmqnC7gFvK2t8vx6be2chVxA4Bu4KTyU5SkSvkw+dvbb2bJTLXyAeIGAH2j0jmlZylJ1XAosIH8be1pOZJTvcwkbQ0cOQi4HhhbdqKSFGwq8Aj529jV+OWVBvEzYgcAPcC/AaPKTlSSgowHriSmff1WhvxUU28hfgDQA3yu7EQlKcBY4FLi2tZjyk9RdTUW+B3xA4Ae4FMl5ypJOY0BLiSuTb0Pn65qGz5JfOffF18HJpSbriSVbjrwc2LbUxdd0zZNB1YR3/n3xW34dYCk+jqImAl//eNpYHLZiaoZPkt8x98/lgHvwsdXkupjHPBxYC3xbegnSs5VDbITaYne6Eq7dVxL2r5YkqrseGAh8W1mD7AC2LHcdNU05xJfcQeKLaTPFU/FJwKSqqOL1C5V4XPq/vHRMpNWM00CHiW+8g4VdwIfI71jk6TcRgNHAf8ALCa+Tdw6HiKtO6ABeAc5tLcC340+iBYtIW1xeS9wD+mTl+Wkla8kaaR2JK2YeiCwf++frwZmRB7UNrwJuCT6IKrKAcC2/Rh4XfRBjEAP6R3YStKmQ5LUqrHA9sAO0QfShkuB06MPosocAGzbLqQ76mnRByJJasly4ADgyegDqTL3RN62J4C/jD4ISVLL/hI7/23yCUDrLgT+KPogJElDuoT07l/b4ACgdTOAu4FZ0QciSRrQU6TJiU9FH0gd+AqgdU8DZ5Em1UmSqqUHeA92/i0bHX0ANfMAaT3pI6MPRJL0Av8POD/6IOrEVwDDNxq4HHht9IFIkgD4BXAiaaVUtcgBQHt2Am4E5gYfhyR1ukeAw0mvaTUMzgFoz1PACcDS6AORpA72NGmhNjv/NjgAaN9DpI0vnos+EEnqQGuBNwC/iT6QunIAMDI3k5aaXBN9IJLUQdYArweujz6QOnMOQDGOJk0MnBJ9IJLUcGtIT19/GX0gdecTgGIsAE4Cnok+EElqsOXA8dj5F8InAMV6CWn3wL2jD0SSGuZh0mP/hdEH0hQ+ASjWw6TXAddFH4gkNcg1pE/97PwL5EqAxVsLXACMB47CpyyS1K4e4EvAn+AXV4WzcyrXm4CvAztEH4gk1cwK4N3AD6IPpKl8BVCui4F9gcuiD0SSauRKYD52/qVyAFC+J4DTgPcDK4OPRZKqbAVpR7+TgMeCj6XxnAOQz23A14AJwCE4+JKkPj3At0g3SwuCj6VjOAcgxqHAPwOvjD4QSQp2DfBXwC3RB9JpvAuNcTNwDGkA4IIWkjrRr0lr+b8KO/8QPgGohtcAZwOn4KBMUnN1kyZFfwFvfsI5AKiWlwAfAN4B7Bx8LJJUlCdJ7/jPBx4JPhb1cgBQTWOA15IGAq8Hto89HEkatpXAj0gd/8+ALbGHo605AKi+saT5AqeQBgX74msCSdXTDdwH/JS0J8q1wKbQI9KQHADUz47AK4AjgAN64yX4SaekfDaTHuXf0xs3ANeTvuNXTTgAaIbxwFzSvIHdgFnAOGAy6QmCJLVjE2kN/g3AUuC3vX8+2vtvkiRJkiRJkiRJkiRJkiRJkiRJkiRJkiRJkiRJkiRJkiRJkiRJkiRJkiRJkiRJkiRJkiRJkiRJkiRJkiRJkiRJkiRJkiRJkiRJkiRJkiRJkiRJkiRJg/r/bA4mjXFGTXkAAAAASUVORK5CYII=;fontSize=21;" vertex="1" parent="WIyWlLk6GJQsqaUBKTNV-1">
          <mxGeometry x="20" y="250" width="122" height="122" as="geometry" />
        </mxCell>
        <mxCell id="Pnqbn7wbbDNNJb0yD08k-86" style="edgeStyle=none;curved=1;rounded=0;orthogonalLoop=1;jettySize=auto;html=1;exitX=1;exitY=0.5;exitDx=0;exitDy=0;fontSize=12;startSize=8;endSize=8;" edge="1" parent="WIyWlLk6GJQsqaUBKTNV-1" source="Pnqbn7wbbDNNJb0yD08k-81" target="Pnqbn7wbbDNNJb0yD08k-1">
          <mxGeometry relative="1" as="geometry" />
        </mxCell>
        <mxCell id="Pnqbn7wbbDNNJb0yD08k-81" value="등록자" style="shape=image;verticalLabelPosition=bottom;labelBackgroundColor=default;verticalAlign=top;aspect=fixed;imageAspect=0;image=data:image/png,iVBORw0KGgoAAAANSUhEUgAAAgAAAAIACAYAAAD0eNT6AAAACXBIWXMAANH5AADR+QGceVN3AAAAGXRFWHRTb2Z0d2FyZQB3d3cuaW5rc2NhcGUub3Jnm+48GgAAIABJREFUeJzt3Xm0XlV98PFvbuaQAJkgDGZQ5iGIMgmIiCAgIjhQrVrqSN9aK7r6Wt6ltkW0b33t4NiitXVVtCpoQUQRHBAhyDxPkSkhKBBCIAOZk3vfP/a9con33jz3uefs3znn+X7W+q3ELJb7/M6zz977nLPP3iBJkiRJkiRJkiRJkiRJkiRJkiRJkiRJkiRJkiRJkiRJkiRJkiRJkiRJkiRJkiRJkiRJkiRJkiRJkiRJkiRJkiRJkiRJkiRJkiRJkiRJkiRJkiRJUrlGRR+ApMJNAaYDM4EZvX+fBOwAdAFjev+b/lYBW4BuYCWwFngaWA4s6/1zdYZjl5SJAwCpfiYC+wN7AHOBeb1/zgXmAONLKncD8CiwGFjU++di4CHgXmBdSeVKKoEDAKnadgYOA+b3xkGkjn905EENYAvwIHAXcCdwN3ATsDTyoCQNzgGAVC0vBo4Gjur9c1/qfZ0+ASwAruv983bSawZJkjraDOCPgW8CTwE9DY+lwDeAt5HmJkgKUuc7C6mu9gfeBLwOOJTqPc7PZQvpNcHlwMXAfbGHI0lS8eYCZ5Meg0ffhVc17gXOBfZu6wxLklQR04GPkN57R3eudYtbSQOmacM+65IkBXk58FVgDfEdad1jPXARcDy+spQkVdAU0h3rQuI7zabGQuBDwOQWfxNJkkqzM+m99XLiO8hOiZXAF4Ddt/3zSJJUrP2A/yKtjhfdIXZqrAe+Duwz9E8lSdLIzSW9399MfAdopNhCmiew5+A/myRJ7ZlN6vg3Ed/hGQPHRuAC4CWD/IaSJLVsKvB5fNRfp9gA/DOw4wC/pyRJQ+oCziQtXRvdoRntxXLSlxmdutKiJGmYjiPtahfdgRnFxB3AsUiSNIippPf80R2WUU5cRNp8SZKk3zuDztiNr9NjKenVjiSpw80Gfkx8x2TkjctwISFJ6lhnAM8Q3xkZMbESeCeSpI6xPb7rN56Pi0jzPyRJDXY48BDxnY5RrVgMvBJJUuOMAs7BJXyNwWMT8L9x22FJaozJwPeI72CMesSlwA5IkmptL+Ae4jsVo16xkLTjoySpht5Amukd3ZkY9YyVwClIkmrlLNy5zxh5bAb+EqmB3CRDTTMa+BzwadKGPnqhHmAFsB5YBawhDZTWAxNwAtzWuoCTSZ+O/px0/qRG8GJXk0wCvg2cFn0gAdYCD5A+Z1sMLAKWAE+TdsXriy3b+P8ZDUwnrZk/vTdmA/N6Yy6wJ+lcd5qLSQsHrYs+EKkIDgDUFDsClwOviD6QDFYAvwZuI+1aeCdpbYPuTOWPBvYA5gMHAS8DjqQzZs4vAF5Pmh8gSQo2g9QZRr8vLiuWkZ5s/BlwANV8tdEFHAj8OfAd0pOH6PNWVtxCejIiSQq0C3Av8Z1CGZ3MJ0krF9Zxrs5o0tOY82jm4OxuYFZhZ0uSNCyzgQeJ7wyKijuBj5MerzfNnsAnSB1n9HkuKh4AXlTkSZIkbduuNGNN/2eAL5Ien3eK+cCXgGeJP/8jjQdJT6EkSRnMBO4jvvEfSdwInAlMLPjc1MlE4E+Bm4j/PUYS95DmoUiSSrQD6f14dKPfTmwBLgOOL/ys1N/RpG1567pZ0x24pbAklWYKcAPxjf1wYzPwDdK+BBraPsA3SYOl6N9tuHEdsF3xp0SSOtto0i5t0Y38cKKbdMc/v4Tz0XT7AhdQv4HAj4ExJZwPSepYXyG+cR9O/IK0SI5G5mDgauJ/z+HEl8s4EZLUif6a+Ea91VhCmtynYp0KPEz879tqfKSc0yBJneMM6vEYeD3wN8D4ck6DSJsVfRLYQPzvva3YAryxnNMgSc03n7RbXXRjvq24DtivpHOgP3QAcD3xv/u2Yi3pFYYkaRimUf1HvmtJe8VXcW3+pusCPkz6DaLrwVDxIGmjKklSC7pIO/tFN95Dxd04u78K9gVuJ74+DBWX4SBRklryKeIb7cGiG/hHfNdfJROAz5F+m+j6MVj8bWnZS1JDnEx1G/IVpNnoqqY3AiuJrycDxRZcAVKSBjUTeIL4xnqgWEh63Kxq25Pq7jj4O9wzQJL+wCjgR8Q30gPFxcDk8lJXwaYAPyC+3gwUl5SYtyTV0geJb5wHii/gBK46GgWcS3z9GSjOKi9tSaqX/aje51ybgb8oM2llcTbV22HwOWDvMpOWpDroonqLumwA3lRm0srqDKq3euC1+GRJUoc7m/jGuH+sB95QasaKcDLVe8r056VmLEkVNhdYTXxD3BergWNLzFexjqNa9W0lsHupGUtSRV1BfCPcF2ux8+8ER5HewUfXt774cbnpSlL1vJ34xrcv1gMnlpuuKuR1VGtOwFvKTVeSqmM74DHiG94eYBNwernpqoLeTHW+DlgETCw3XUmqhvOIb3T7wolYnet9xNe/vvhEyblKUrgXAWuIb3B7gL8vOVdV32eJr4c9pGtidsm5SlKoC4lvbHt6j8PvsDUK+Bbx9bEH+GbJuUpSmMOoxk5/N5O2kJUgvX+/jfh62Q28rORcJSnElcQ3ssuBeWUnqtqZAywjvn5eVnaikpTbUcQ3rpvxcz8N7jVU48uAI8pOVJJyupr4hvXjZSep2juX+Hr6s7KTlKRcjie+Ub0WGF12oqq9McB1xNfXY0vOU5KyuJrYxnQFad8BqRXzSOv0R9bZn5aepSSV7BDi76beXnqWapozia+3Ly09S0kq0XeJbUTdbEXt+iGxddd1ASTV1hzSWvtRDehK0sqDUjtmA6uIq78bcXVASTX1OWLvoP5X+Smq4T5EbB3+p/JTlKRibUfsRKqbcKlfjVwXsasEPgtMKj1LSSrQe4lrNLuBo8tPUR3iSGKXsP7T8lOUpOLcQFyD+a0M+amzRG5itSBDfpJUiPnENZZrceKfijcHWEdcvd6v/BTVaXxHqjK8P7DsfwMeCyxfzfQo8O+B5b8vsGxJask44Bli7pJWAzPLT1Edahawhpi6vYy0TLFUGJ8AqGgnAlODyv4iqaGUyvAk8K9BZc8g7VYoSZV1AXF3/9My5KfONoO4pwBfz5CfJLVlAmnjnYjG8fMZ8pMAvkxMHX8WGJ8hP0katjcS0zBuBl6SIT8J0m6Bm4mp66/PkJ86hHMAVKS3BJX7P8DDQWWr8ywCLgkq+4ygciVpUKOB5cTcFbnqn3I7hpi6/hTeuEmqmCOJaRDvA0ZlyE/a2r3E1PlDcySn5nMkqaKcHFTuV0mNopRb1Kz8qGtNkgZ0M/nvhNbhp3+KMwNYT/56f32O5CSpFTsDW8jfEH4/R3LSEH5A/nq/mTT4kEbEVwAqwquIqUvfDShT6u/CgDJHkyYhSiPiAEBFOCqgzDXATwLKlfr7Iaku5hZxzalhHACoCEcGlBnV8Er9rQEuDyjXAYCkcNsBm8j/HvStOZKTWvBO8tf/jcCkHMlJ0mBeQ8wkqOk5kpNaMIOYSbDHZshNDeYrAI3UEQFl3khadVCqgqeBWwLKfUVAmWoQBwAaqYMCyrwioExpKBF1MuLaU4M4ANBIRTRCvwgoUxrKVQFlHhhQpiQBMJH826KuBybkSE4ahonABvLPhZmYIzk1k08ANBIHkhYlyekW0iBAqpJ1wG2ZyxwN7Ju5TDWIAwCNRMQjyF8HlCm14rqAMucHlKmGcACgkdgroMybAsqUWhFRNyOuQTWEAwCNxLyAMu8MKFNqxd0BZUZcg2oIBwAaidyNzxrg4cxlSq16gDQXIKe5mctTgzgA0EjMzVzePUB35jKlVm0B7stcpk8A1DYHAGrXZPLvSZ67cZWGK3cd3Ym0H4c0bA4A1K65AWUuCihTGo7cdXQUMCdzmWoIBwBq184BZToAUNVF1NGdAspUAzgAULtyP/4HWBxQpjQcEQOAiGtRDeAAQO2aFlDmowFlSsOxOKBMt8ZWWxwAqF0zA8pcFlCmNBxPBZTpEwC1xQGA2pX7ruM53ANA1beO/GsB+ARAbXEAoHbtmLm85ZnLk9r1dObypmYuTw3hAEDtGp+5PAcAqovcddXtsdUWBwBqV+4BwJrM5Untyl1Xx2UuTw3hAEDtyt3obMhcntSujZnLyz0YV0M4AFC7cjc6uRtVqV25B6s+AVBbHACoXT4BkAaWu676BEBtcQCgduWuO+4CqLrYkrm80ZnLU0M4AFC7NmUuz8ecqovcd+Q+HVNbHACoXb7nlAbm/BjVggMAtcuZztLAnB+jWnAAoHblbnRc7ER1kbuu+gRAbXEAoHblbnRc7lR1kXunTJ8AqC0OANSu1ZnLc8MT1UXuAUDua1EN4QBA7cq93vk0rK+qvjHkf1qVe/MhNYQNqtqVu9HpwtcAqr6pwKjMZbpRltriAEDtimh0dgsoUxqO3QPK9AmA2uIAQO2KaHTmBpQpDce8gDIdAKgtDgDUrognABGNqzQcEXX0mYAy1QAOANSu3waUOTegTGk4IgYASwLKVAM4AFC7ngDWZy5zr8zlScO1Z+by1gFPZS5TDeEAQO3qJv+dx/zM5UnDlbuOLgZ6MpephnAAoJFYlLm83XFBIFXXTGBW5jJzX4NqEAcAGonFAWUeGFCm1IqDAsp0AKC2OQDQSDwcUObBAWVKrYgYADwSUKYawgGARuKegDKPDChTasXRAWXeHVCmJLEbaQJSzngyS2bS8IwClpL/etg5R3KSNJBl5G/0XpwlM6l1e5P/OvDzP42IrwA0UhGPIF8ZUKY0lIjH/3cFlKkGcQCgkYpohE4MKFMaykkBZd4RUKYaxAGARurWgDJfC4wOKFcayBjg+IBybwsoU5J+bx753332AEfkSE5qwSuJuQZm50hOzeUTAI3UIuDxgHJPCShTGsjrAsp8DDcB0gg5AFARrgso84yAMqWBvCWgzGsDylTDOABQESIGAHsTs/Ka1N8hwB4B5UZcc2oYBwAqQtTdyFuDypX6/FFQuQuCypWkF+giZhW0R0grsEkRuoBHyV/vf4f1XgXwCYCK0A1cGVDuPOC4gHIlSJ+jRszEv4I0EJBGxAGAivKToHLfH1SuFFX3oq41SRrQNGAz+R+HbgB2ypCf1N/OwEby1/dNwI4Z8lMH8AmAivIMcFNAueOA9wSUq872XmBsQLnXAysCypWkIf01+e+I+iZFjcuQnwQwnrT4VURd/0iG/CRp2GaTJgRGNIzvKj89CUh3/xF1vBuX/5VUYTcQ0zjejZ9GqXyjgHuJqePXZMhPHcQ5ACrahUHlHgCcGlS2Oscbgf2Cyr4oqFxJasmuwBZi7pDuwkGtytMF3EFM3d5CurYkqdKuIqaR7MFNglSePyauXkcstCVJwxbZUN4LjC4/RXWYMcBCHNhK0pDGAU8R11j+WfkpqsN8kLj6vIz06aEk1cK/ENdgLietTCgVYSqpE46qz58tP0VJKs4+xK0J0EMagEhF+BJx9bgH2Lf8FCWpWFcT12huBPYvPUM13XzS+vtR9fiq8lOUpOK9gdg7pxtwQqDa1wX8mtg6/LrSs5SkEowC7iO2Af1g6VmqqT5CbN29H9e1kFRj7ye2EV2F66dr+OYCzxFbd99ddpKSVKbxwBPENqTX4KsAta6L2MWsenCHS0kN8TFiG9Me4JzSs1RTfJz4+vrR0rOUpAwmA0uJbVA3AYeXnahq7xDSFySRdfUp0jUjSY3wUeLvqh4Ediw7UdXWVOBh4uvph8tOVJJymkh6rxnduF6GM6v1h7qAHxNfPx8nXSuS1ChnE9/A9gB/W3aiqp3ziK+XPcCfl52oJEWYACwivpHdApxacq6qj9NIdSK6Xj6IM/8lNdhbiG9oe4A1wGEl56rqeznx3/v3xRtKzlWSwv2S+Ma2h/S+dU7Juaq65hK/RkVf/KLcVCWpGl4KbCa+0e0B7ibN/lZnmU78MtV9sQk3rpLUQb5KfMPbFzcCU8pNVxWyPXAT8fWuL75YbrqSVC0zSAueRDe+fXE1MKnMhFUJk4Bria9vffEEPoGS1IHeTnwD3D+uwG+wm2wS8FPi61n/OKPUjCWpwi4lvhHuH78iPSJWs2wH/Jz4+tU/flRqxpJUcbNJW/ZGN8b942bSJDE1w1TgeuLrVf9YCexeZtKSVAd/QXyDvHXcAexWZtLKYnfgLuLr09bxZ2UmLUl1MYr0ODS6Ud46fgccXGLeKteBwBLi69HW8RNSnZckATsBTxLfOG8dq4HXlZi3ynEC6TF7dP3ZOpYCs0rMW5Jq6WSgm/hGeuvYBJyDd211cRawkfh6s3V0A68vMW9JqrXziW+oB4vvkGaTq5omAxcRX08Gi8+Xl7ok1d8k0gS86MZ6sLgb2Ke07NWu/anO0r4DxS2k3TAlSUOYAywjvtEeLNYBZ+Mrgao4k7S7Y3S9GCyWA/NKy16SGuZkqrFH+1DxA9KSxoqxE3AZ8fVgqNhMmpAoSRqGvyW+AW/l7u6ssk6ABnUG1dpLYrD4P2WdAElqsi7gEuIb8VbiR8CLyjkN6mcu6Tv66N+7lfg+viaSpLZtR7W2bh0qVpE+FxxfypnobBOAjwHPEf87txI34MZSkjRiM4EHiW/UW40lpIlpKsapwMPE/66txiPAzqWcCUnqQPsBzxLfuA8nfgkcWcbJ6BCvJO3OGP07DieW42eiklS4VwPriW/khxuXA4eUcD6a6jDgSuJ/t+HGOuCYEs6HJAk4jWou87qt6CYNBI4r/pQ0xvHAFcT/Vu3ERlzmV5JK98ek76ujG/1249beHMYWfWJqaBzwduA24n+XdmMz8EdFnxhJ0sD+lOovFLSteAb4KmkZ206zJ/AZ0u540b/DSKIbeH/B50aStA0fpJq7B7bTiVwFvBeYVugZqpbppM7yaprzu32gyBMkSWrd+6n/k4D+sRH4MekJx8wCz1OUnYB3keY/1HHuxmCxmTRgkyQFegewifhOoejYAtwInAscAYwp6HyVaQzp08fzgJtp1uCsLzYCbyvqhElRXKZSTfFG4Ds0exW+NaQBwQLg16QtZpeHHlF6rH8oqdM/GjictKVzU20gTfj7YfSBSCPlAEBN8lrS+utTog8ko8eBu4E7gYXAot74LenuuwhjgN1JW9rOIy10Mx84ENi1oDLqYCXwZuAX0QciFcEBgJpmPukd+u7RBxJsE/AEsAx4mvSkYDmwlvQYe8VW//2OpPZgEumufjppq+OZwC74yeIS4BTgnugDkSQNbhfS4/Hod8VGM+JOHFBKUm1MIT0JiO48jHrHZcBkpAYaHX0AUkk2AheSGvFj8HWXhqcH+CxwFmninySphk6lfjsJGnGxijTZT5LUAHuRZstHdy5GtWMhaetpSVKDTAG+RXwnY1QzvoHv+yWp0c4gbcQT3eEY1YiVwDuRJHWE2cCviO98jNi4HngxkqSOMhr4BLCe+I7IyBvrgY/hl1CS1NH2AH5JfKdk5InrcKKfJKnXKNI336uI76CMcmIlcDbQhSRJW5kNXEx8Z2UUG9/D5XwlSS14NXAH8R2XMbK4DzgRSZKGoQs4E1hKfEdmDC+Wkx73O8lPktS2qcA/AM8R37EZQ8dq4NOk7Y0lSSrEDOAzwFriOzrjhbEe+Cowa9BfT5KkEdoV+DKwjviOr9NjLfBFYJchfzFJkgo0EzgXWEZ8R9hpsYz0NMaOX5IUZjxpsuD9xHeMTY+HSZP7JrX0y0iSlEEXcDxwEbCR+M6yKbEZ+BlpE6cxLf8akiQFmAWcAzxEfAda13iQ9IrlRcM79ZIkxRsFHA18CXiC+E616vE48AXgqN5zJ0lS7Y0mrTD4FeAp4jvbqsRS4HzgWFynX8rGEbYUows4mDRn4HjgVcDY0CPKpxu4Hfg58CPg173/JikjBwBSNcwATgCOIb0y2I/m3A13A/cCC4BrSBP6locekSQHAFJFTQWOJL0LPww4iDRIqIOngTuBG0l399cBK0KPSNIfcAAg1ceuwIGkwcABwB7APOKWv30CWEz60uFuUqd/d++/S6o4BwBS/U0kDQTmArNJKxTOAKb3xgxgWu9/uz1pMuJYYHLvvz0HbAK2AKt6/215v3i6989lwBJgEanjX1daRpIkSZIkSZIkSZIkSZIkSZIkSZIkSZIkSZIkSZIkSZIkSZIkSZIkSZIkSZIkSZIkSZIkSZIkSZIkSZIkSZIkSZIkSZIkSZIkSZIkSZIkSZIkSWqaUdEHIGlYpgM79cYuwAxgCrBDb0zpF9sDO/L8dT4emNTv/6vv72v7/dtaYEPv33uAFcAqYHW/WNkbq4FlwBO9fy4FnikkS0mlcwAgVccMYO4AsQuwMzATGBdxYMOwkTQYeJI0MFg8QCyPODBJL+QAQMprErBPb+zf++depI5+ctxhZbWaNBB4AFgI3Afc3/v3dXGHJXUWBwBSOUYBewIvBw4mdfb7AnOArsDjqrJu0sDgfuBe4HbgVuAh0usISQVyACCNXBfPd/Z9cTDpHbxGbiXPDwb64kEcFEgj4gBAGr4xwEHA0cBRwHGkyXnKZzVwI3AdsKA31ocekVQzDgCkbZsEvLJfHAZMCD0ibW0dcDNwDXBtbzifQBqCAwBpYC8GjgdO7f3TDr9e1pOeCvy8N27DVwbSCzgAkJJpwMnAicAJwKzYw1HBngB+2htX4HoFkgMAdbTZwEmku/wTgbGxh6NMtgA3AJcBF5MmFEodxwGAOs1BwOnAaaSZ+tJtwA+AS4G7go9FysYBgDrBHOBtwLuBvYOPRdW2ELgQ+DZpoSJJUs1MB84iTQTrJk0AM4zhxL3AOTgfRJIqbwLwTuBnwGbiOxCjGbEZuBJ4O34NIkmVsi/wGdImNNGdhdHsWAF8FXgpkqQQU4AzSXf70Z2C0ZlxC+k1U6ds4iRJofYBzictBRvdARhGD7AK+DJpV0dJUoFGkVbjuwwn9BnVjW7SE6lT8QsrSRqRCaTH/PcQ37gbxnDiAeBsYDskSS2bAXyKtFxrdENuGCOJ5cAncbdISRrSzqTZ/M8R33AbRpHxHPAFYHckSb83j9Q4riO+oTaMMmMDcAGuSCmpw+0J/Dcu2mN0XmwCvgnsgSR1kN1Ji6lsIr4hNozI2Eh6IjAPSWqwGaR3/GuJb3gNo0qxgTQodt8BSY2yPWlWv4v3GMbQsYr01cAUJKnGukjf8T9JfMNqGHWKp0nrCIxGkmrmOOAO4htSw6hz3AechCTVwJ7ARcQ3nIbRpPgZsB9SgVyvWkWZDJwLfAgYG3soGsQG0gTMPut6/5zY798mAeOzHZGGYyNpvYxPAmuCj0UN4ABARTgd+CLwougDabhNwFPAUtK8imW9/7vv76t7Y0W/vz/X+2c7ppAGdlN6Y8d+f58J7ALs1Pv3Wb1/3wkHgGVbQhpoXxp9IKo3BwAaiTnAl0i7n6kYj5M2klncG4v6/f13wJaYw2rZaGA3YG5vzOv3972AXWMOq5EuJQ0ElkQfiOrJAYDaMRb4MPB3uNtZux4B7gXuBxaSJnstBFZGHlQGOwD7APuTlsPdt/fvL448qBpbQ3r19nnSippSyxwAaLheDnwdmB99IDXRAzwI3NYvbiU9ptfzpgIv6xcvJy2TaxvVmjuBdwO3Rx+IpOYZR1rMx+V7h441wFXAecCJpEWQ1J7tSefwPNI5dZfIoWMjaYLguHZOtiQN5GXAXcQ3cFWM1cAPgY8Ah+MEuDKNAQ4jnetLSavmRf/+VYw7gJe2eY4lCUid2Tmkz8eiG7WqxBbgFtKeBsfjJ3ORRpNeFZxD+k5+I/H1oyqxiVRHfRogadj2J71XjG7IqhDPAt8G3gpMG8lJVammAmeQttldTny9qULcTppoKUktORPftz5K2p3tVLyLqqPRwNGku+CFxNenyFhH2ldAkgY1DbiE+AYrKpYA/0h6rKxmOQj4v6R1FaLrWVR8n/SURJJe4FjgMeIbqdzxDHAB6U7fndc6w/6kJwOPE1//cscS4JiRn0JJTTCa9JnVZuIbp1yxEbgYeD3O2u9ko4ETSPM71hFfL3PFZtIiXl0jP4WS6mo6cCXxDVKu+A1pxvjORZw8NcoOwFmkRZqi62muuIq0d4OkDnMoaaJbdCNUdqwnPeJ/Ja4qp9YcAnyFtMZDdP0tOxbhnBepo5xJ2hY2uvEpM54kvefdraBzps6zPempwP3E1+cyY31vnpIabALwNeIbnDLjFlJjNqGgcyZ1kRZ9ugzoJr6OlxUXABMLOmeSKmRX4GbiG5kyopvUOB9Z2NmSBrY/8A2au+rgDcCsws6WpHDzaeb7/i2kjv+Q4k6V1JI5wBdImz9FXwdFx29J+39IqrnTaN5kpvWkSVovKfA8Se2YCXyatFx09HVRZKwifSYrqabOJt0lRzcmRcUW4CLgxUWeJKkAU0ifmK4g/jopKrqBcws8R5IyGAv8B/ENSJEd/7eAPYo8SVIJZgCfpVmvBr5K2opZUsVtB1xOfKNRVFwCHFDoGZLKN4s0R6ApW2n/CJhU6BmSVKipwALiG4si4lbgVcWeHim72aTP65rw+eCNpCcckipmV+Au4huJkcbvSN/xuzGPmuQw4Frir6+Rxn3Aiwo+N5JGYH/qv5PfGtIGJT5mVFONAt4GLCb+ehtJPArsW+ypkdSOVwDLiW8URhKXkr6rljrBROBTpM9Zo6+9duNp0lMNSUGOJn2vG90YtBu/Je1LIHWiPYCfEH8dthvPAccWfVIkbdsx1HeBn02kGdJTCj8rUv2cSn1X6nwOOK74UyJpMCdQ3++MbyUtTSzpeVOAL1PPrwWeA15d/CmRtLUTqedWvhtJ2/OOK/6USI1xFLCQ+Ot1uLGGdGMiqSSnUM+JQzfjYj5SqyYC/wRsJv7aHU6sI92gSCrYa0gXWPRFPpzYCHwMlxGV2nE4cD/x1/FwYi0u4CUV6nDqN+FvEekTRUntm0iaMFunuQGrgEPLOBlSpzmQ+n3nfwEwuYyTIXWoE4HHib+2W41ngZeWciakDrEn8ATxF3OrsRJ4RylnQtJOwGXEX+etxlJg71LOhNRCssY9AAANvklEQVRwc4AlxF/ErcbNwNwyToSk3xsFfJg0vyb6mm8lFuPeAdKwTKNenwJdQHpXKSmPQ0jzbKKv/VbiPtJOpZK2YRzwC+Iv2lZiHfC+ck6DpG2YTn2WEv4VML6c0yA1wyjgm8RfrK3EozjTV4o2CjiHeqwZ8J3e45U0gM8Qf5G2Er8gvaaQVA0nkWbeR7cN24pPl3UCpDp7H/EXZyvxNWBsSedAUvv2JL1vj24jthUfKOsESHV0EmmHvOgLc6jYTJp9LKm6dgSuIL69GCo24b4BEpBG7VV/dLeatGWppOobTfVfJz4D7FHWCZDqYApwD/EX41DxBHBwWSdAUmneQ7WfLN4PbF9a9lKFjQK+R/xFOFQ8hKN0qc5eS1qbP7otGSwuwS8D1IHOI/7iGypuAmaWlr2kXA4FniS+TRks/qa81KXqOZ1q7+71M9LrCUnNMI/qri7aDby5vNSl6tiTaj+SuxA/85OaaCZwK/FtzECxAnhxealL8cZT3QuwB/guMKa07CVF2wFYQHxbM1DcTFoKXWqkfyX+Ihss/hs7f6kTTAKuJL7NGSg+V2LeUpg3E39xDRZfA7rKS11SxYwDLia+7dk6uklzpKTGmEd1F/v5Cn6GI3WiscBFxLdBW8dyYHaJeUvZjCN9Uhd9UQ0UF+Cdv9TJxlLNJwG/xleSaoC/J/5iGiguwQtMUhoEXEp8m7R1/F2ZSUtlezmwkfgLaev4KemLBEmC9KTyMuLbpv6xibSIkVQ7k6jmwhu/6j02SepvAmkRsOg2qn/c23tcUq18kfiLZ6CLaWqZSUuqtUnAdcS3Vf3jn0rNWCrYcVRvqd/fAXPKTFpSI0wH7iO+zeqLLcCrSs1YKsj2wKPEXzT9YxXw0jKTltQos4HHiG+7+uJhYHKpGUsF+DLxF0v/2AicWGrGkppoP9I3+dFtWF/8S7npSiNzOOlxVfSF0j/eW2rGkprsKGAd8e1YD7CZ9GWVVDljgNuIv0j6x+dLzVhSJziD6sxpugPXL1EFfZT4i6N//BwvFEnFOJf4Nq0vPlxuqtLwzAZWE39h9MUi0t7fklSEUcC3iG/beoA1wNxSs5WG4UfEXxR9sRqYX266kjrQBOB64tu4HtLSxVK4U4m/GPrHW8tNV1IH2xn4LfHtXA9wcsm5SkMaB/yG+AuhL/613HQliSOA9cS3d/eTNjKSQvwV8RdBX9wFTCw3XUkC4C+Ib/N6gA+Vnag0kGlUZ5GM1cA+5aYrSS/wdeLbvmdISxdLWZ1PfOXvi3eUnKskbW0CcCvx7d8Xyk5U6u9A0qpU0RW/B/jPknOVpMHsQdprJLIN3AjsW3aiUp/Lie/4e0jf+29fcq6SNJQ/Ib4t9LNAZXEU8ZW9h7TnwLHlpipJLfkm8W3iEaVnqY53FfEVvQf4x7ITlaQWTSb+k+iflp6lOtoJxHf8PcC9pAk4klQVhwAbiG0bX116lupYNxDf+W8mXWiSVDWfILZ9XFB+iupEVVny93NlJypJbRoD3ERsG+kSwSrUKOB24jv/JcCUknOVpJE4kNhXAbeQ2mypEKcQ3/n3AKeVnagkFeDjxLaVJ5afojrFNcR3/t8vPUtJKkb0q4Cryk9RneAVxHf+q4Hdyk5Ukgp0IGmVvqh287DyU1TTXUr8AOBjpWcpScX7LHHt5v9kyE8Ntg9pxb3Izv8R/OZfUj1NIi1ZHtF2bgH2Kz9FNdV/EX/3/+ayk5SkEp1OXPv5HxnyUwPNIn5Vq6vLTlKSMvghMW3oemCnDPmpYaJXtNoCvLT0LCWpfHOANcS0pc6h0rCMAR4jdgDw36VnKUn5nEdMW7qE1KZLLXkTsZ3/ZmDv0rOUpHwmA48T06aeniE/NcTPiR0A/Hv5KUpSdu8hpk11q2C1ZE+gm7jOfx3wotKzlKT8ukhr9eduV7vxqapa8Hli7/4/X36KkhTmOGxbVUFjgWXE3v3PKj1LSYr1E/K3r8uB8TmSUz2dSuzd//nlpyhJ4V5OzKvWM3Ikp3r6LnGd/2bS/ANJ6gQ/IH87e3mWzFQ7k4hbqKIH+E75KUpSZRxE/r1WNgMzcySneol+/P+y8lOUpEq5iPxt7btyJKZ6OZ+4zv8nGfKTpKrZl/xPAS7JkplqZQlxA4DXZchPkqrof8jb3q7BrwHUz17Edf4PkRbHkKROdCj5292js2RWcXY8SWRlOJ/0OYwkdaKbgV9mLvNVmctThf0nMXf/a4FpGfKTpCo7kbxt75V50lId3E/MAODrOZKTpIobBdxOvrZ3eZ60VHUTSN+GRgwADsmQnyTVwTvJ2/7unictVdnLiOn8b8yRnCTVxHhgKfna4I7/+spJgHBgULlfCSpXkqpoA/CNjOXtl7GsSnIAAC8JKHM1ad8BSdLz/iNjWbMzllVJDgBgTkCZC0hb/0qSnvcAaVG2HBwARB9ABURUgmsDypSkOvhVpnIcAEQfQAVEzAS9JqBMSaqDXO1jx+8K6AAAdgwoc2FAmZJUB7/JVM72mcqpLAcA+SvBRuCZzGVKUl08mamcKXR4H9jRyQMTgXGZy+z7zlWS9IeWZipnFLBdprIqqdMHABFbQq4IKFOS6mIVbpCWRacPACLuxCcFlClJdTGBfH1TRw80HADkNyWgTEmqi8nRB9ApOn0AsCWgTAcAkjS4XAOAHmB9prIqqdMHAGuATZnLnAjsmrlMSaqLPTOVs4qYm8DK6PQBAMDKgDIPCihTkupgfqZyOn5CtgMAeDagzFwVXJLqJlf72PHrsTgAyLfoRH9HBJQpSXWQq33MtelQZTkAgMUBZb6WDl+AQpIGsB+wV6ayFmUqp7IcAMRUgknACQHlSlKVvTFjWYszllVJDgDg4aBy3xRUriRV1ekZy3JTNjGf9D1o7lgPzMqQnyTVwaHkbYN3zpOWqmwMsI6YQcAnM+QnSXXwPfK1vb/NlJNq4CZiBgBPkRYGkqRONg/YTL6297I8aVWbcwCSBUHlzgTODipbkqriXGB0xvKuzliWKu4UYp4A9JCWI55dfoqSVEmvIO3Kl7PdPThLZqqFKcBG4gYB3y4/RUmqnC7gFvK2t8vx6be2chVxA4Bu4KTyU5SkSvkw+dvbb2bJTLXyAeIGAH2j0jmlZylJ1XAosIH8be1pOZJTvcwkbQ0cOQi4HhhbdqKSFGwq8Aj529jV+OWVBvEzYgcAPcC/AaPKTlSSgowHriSmff1WhvxUU28hfgDQA3yu7EQlKcBY4FLi2tZjyk9RdTUW+B3xA4Ae4FMl5ypJOY0BLiSuTb0Pn65qGz5JfOffF18HJpSbriSVbjrwc2LbUxdd0zZNB1YR3/n3xW34dYCk+jqImAl//eNpYHLZiaoZPkt8x98/lgHvwsdXkupjHPBxYC3xbegnSs5VDbITaYne6Eq7dVxL2r5YkqrseGAh8W1mD7AC2LHcdNU05xJfcQeKLaTPFU/FJwKSqqOL1C5V4XPq/vHRMpNWM00CHiW+8g4VdwIfI71jk6TcRgNHAf8ALCa+Tdw6HiKtO6ABeAc5tLcC340+iBYtIW1xeS9wD+mTl+Wkla8kaaR2JK2YeiCwf++frwZmRB7UNrwJuCT6IKrKAcC2/Rh4XfRBjEAP6R3YStKmQ5LUqrHA9sAO0QfShkuB06MPosocAGzbLqQ76mnRByJJasly4ADgyegDqTL3RN62J4C/jD4ISVLL/hI7/23yCUDrLgT+KPogJElDuoT07l/b4ACgdTOAu4FZ0QciSRrQU6TJiU9FH0gd+AqgdU8DZ5Em1UmSqqUHeA92/i0bHX0ANfMAaT3pI6MPRJL0Av8POD/6IOrEVwDDNxq4HHht9IFIkgD4BXAiaaVUtcgBQHt2Am4E5gYfhyR1ukeAw0mvaTUMzgFoz1PACcDS6AORpA72NGmhNjv/NjgAaN9DpI0vnos+EEnqQGuBNwC/iT6QunIAMDI3k5aaXBN9IJLUQdYArweujz6QOnMOQDGOJk0MnBJ9IJLUcGtIT19/GX0gdecTgGIsAE4Cnok+EElqsOXA8dj5F8InAMV6CWn3wL2jD0SSGuZh0mP/hdEH0hQ+ASjWw6TXAddFH4gkNcg1pE/97PwL5EqAxVsLXACMB47CpyyS1K4e4EvAn+AXV4WzcyrXm4CvAztEH4gk1cwK4N3AD6IPpKl8BVCui4F9gcuiD0SSauRKYD52/qVyAFC+J4DTgPcDK4OPRZKqbAVpR7+TgMeCj6XxnAOQz23A14AJwCE4+JKkPj3At0g3SwuCj6VjOAcgxqHAPwOvjD4QSQp2DfBXwC3RB9JpvAuNcTNwDGkA4IIWkjrRr0lr+b8KO/8QPgGohtcAZwOn4KBMUnN1kyZFfwFvfsI5AKiWlwAfAN4B7Bx8LJJUlCdJ7/jPBx4JPhb1cgBQTWOA15IGAq8Hto89HEkatpXAj0gd/8+ALbGHo605AKi+saT5AqeQBgX74msCSdXTDdwH/JS0J8q1wKbQI9KQHADUz47AK4AjgAN64yX4SaekfDaTHuXf0xs3ANeTvuNXTTgAaIbxwFzSvIHdgFnAOGAy6QmCJLVjE2kN/g3AUuC3vX8+2vtvkiRJkiRJkiRJkiRJkiRJkiRJkiRJkiRJkiRJkiRJkiRJkiRJkiRJkiRJkiRJkiRJkiRJkiRJkiRJkiRJkiRJkiRJkiRJkiRJkiRJkiRJkiRJkiRJg/r/bA4mjXFGTXkAAAAASUVORK5CYII=;fontSize=21;" vertex="1" parent="WIyWlLk6GJQsqaUBKTNV-1">
          <mxGeometry x="20" y="-22" width="122" height="122" as="geometry" />
        </mxCell>
        <mxCell id="Pnqbn7wbbDNNJb0yD08k-87" value="server" style="shape=image;verticalLabelPosition=bottom;labelBackgroundColor=default;verticalAlign=top;aspect=fixed;imageAspect=0;image=data:image/png,iVBORw0KGgoAAAANSUhEUgAAAgAAAAIACAYAAAD0eNT6AAAACXBIWXMAANH5AADR+QGceVN3AAAAGXRFWHRTb2Z0d2FyZQB3d3cuaW5rc2NhcGUub3Jnm+48GgAAIABJREFUeJzt3Xm0XlV98PFvbuaQAJkgDGZQ5iGIMgmIiCAgIjhQrVrqSN9aK7r6Wt6ltkW0b33t4NiitXVVtCpoQUQRHBAhyDxPkSkhKBBCIAOZk3vfP/a9con33jz3uefs3znn+X7W+q3ELJb7/M6zz977nLPP3iBJkiRJkiRJkiRJkiRJkiRJkiRJkiRJkiRJkiRJkiRJkiRJkiRJkiRJkiRJkiRJkiRJkiRJkiRJkiRJkiRJkiRJkiRJkiRJkiRJkiRJkiRJkiRJUrlGRR+ApMJNAaYDM4EZvX+fBOwAdAFjev+b/lYBW4BuYCWwFngaWA4s6/1zdYZjl5SJAwCpfiYC+wN7AHOBeb1/zgXmAONLKncD8CiwGFjU++di4CHgXmBdSeVKKoEDAKnadgYOA+b3xkGkjn905EENYAvwIHAXcCdwN3ATsDTyoCQNzgGAVC0vBo4Gjur9c1/qfZ0+ASwAruv983bSawZJkjraDOCPgW8CTwE9DY+lwDeAt5HmJkgKUuc7C6mu9gfeBLwOOJTqPc7PZQvpNcHlwMXAfbGHI0lS8eYCZ5Meg0ffhVc17gXOBfZu6wxLklQR04GPkN57R3eudYtbSQOmacM+65IkBXk58FVgDfEdad1jPXARcDy+spQkVdAU0h3rQuI7zabGQuBDwOQWfxNJkkqzM+m99XLiO8hOiZXAF4Ddt/3zSJJUrP2A/yKtjhfdIXZqrAe+Duwz9E8lSdLIzSW9399MfAdopNhCmiew5+A/myRJ7ZlN6vg3Ed/hGQPHRuAC4CWD/IaSJLVsKvB5fNRfp9gA/DOw4wC/pyRJQ+oCziQtXRvdoRntxXLSlxmdutKiJGmYjiPtahfdgRnFxB3AsUiSNIippPf80R2WUU5cRNp8SZKk3zuDztiNr9NjKenVjiSpw80Gfkx8x2TkjctwISFJ6lhnAM8Q3xkZMbESeCeSpI6xPb7rN56Pi0jzPyRJDXY48BDxnY5RrVgMvBJJUuOMAs7BJXyNwWMT8L9x22FJaozJwPeI72CMesSlwA5IkmptL+Ae4jsVo16xkLTjoySpht5Amukd3ZkY9YyVwClIkmrlLNy5zxh5bAb+EqmB3CRDTTMa+BzwadKGPnqhHmAFsB5YBawhDZTWAxNwAtzWuoCTSZ+O/px0/qRG8GJXk0wCvg2cFn0gAdYCD5A+Z1sMLAKWAE+TdsXriy3b+P8ZDUwnrZk/vTdmA/N6Yy6wJ+lcd5qLSQsHrYs+EKkIDgDUFDsClwOviD6QDFYAvwZuI+1aeCdpbYPuTOWPBvYA5gMHAS8DjqQzZs4vAF5Pmh8gSQo2g9QZRr8vLiuWkZ5s/BlwANV8tdEFHAj8OfAd0pOH6PNWVtxCejIiSQq0C3Av8Z1CGZ3MJ0krF9Zxrs5o0tOY82jm4OxuYFZhZ0uSNCyzgQeJ7wyKijuBj5MerzfNnsAnSB1n9HkuKh4AXlTkSZIkbduuNGNN/2eAL5Ien3eK+cCXgGeJP/8jjQdJT6EkSRnMBO4jvvEfSdwInAlMLPjc1MlE4E+Bm4j/PUYS95DmoUiSSrQD6f14dKPfTmwBLgOOL/ys1N/RpG1567pZ0x24pbAklWYKcAPxjf1wYzPwDdK+BBraPsA3SYOl6N9tuHEdsF3xp0SSOtto0i5t0Y38cKKbdMc/v4Tz0XT7AhdQv4HAj4ExJZwPSepYXyG+cR9O/IK0SI5G5mDgauJ/z+HEl8s4EZLUif6a+Ea91VhCmtynYp0KPEz879tqfKSc0yBJneMM6vEYeD3wN8D4ck6DSJsVfRLYQPzvva3YAryxnNMgSc03n7RbXXRjvq24DtivpHOgP3QAcD3xv/u2Yi3pFYYkaRimUf1HvmtJe8VXcW3+pusCPkz6DaLrwVDxIGmjKklSC7pIO/tFN95Dxd04u78K9gVuJ74+DBWX4SBRklryKeIb7cGiG/hHfNdfJROAz5F+m+j6MVj8bWnZS1JDnEx1G/IVpNnoqqY3AiuJrycDxRZcAVKSBjUTeIL4xnqgWEh63Kxq25Pq7jj4O9wzQJL+wCjgR8Q30gPFxcDk8lJXwaYAPyC+3gwUl5SYtyTV0geJb5wHii/gBK46GgWcS3z9GSjOKi9tSaqX/aje51ybgb8oM2llcTbV22HwOWDvMpOWpDroonqLumwA3lRm0srqDKq3euC1+GRJUoc7m/jGuH+sB95QasaKcDLVe8r056VmLEkVNhdYTXxD3BergWNLzFexjqNa9W0lsHupGUtSRV1BfCPcF2ux8+8ER5HewUfXt774cbnpSlL1vJ34xrcv1gMnlpuuKuR1VGtOwFvKTVeSqmM74DHiG94eYBNwernpqoLeTHW+DlgETCw3XUmqhvOIb3T7wolYnet9xNe/vvhEyblKUrgXAWuIb3B7gL8vOVdV32eJr4c9pGtidsm5SlKoC4lvbHt6j8PvsDUK+Bbx9bEH+GbJuUpSmMOoxk5/N5O2kJUgvX+/jfh62Q28rORcJSnElcQ3ssuBeWUnqtqZAywjvn5eVnaikpTbUcQ3rpvxcz8N7jVU48uAI8pOVJJyupr4hvXjZSep2juX+Hr6s7KTlKRcjie+Ub0WGF12oqq9McB1xNfXY0vOU5KyuJrYxnQFad8BqRXzSOv0R9bZn5aepSSV7BDi76beXnqWapozia+3Ly09S0kq0XeJbUTdbEXt+iGxddd1ASTV1hzSWvtRDehK0sqDUjtmA6uIq78bcXVASTX1OWLvoP5X+Smq4T5EbB3+p/JTlKRibUfsRKqbcKlfjVwXsasEPgtMKj1LSSrQe4lrNLuBo8tPUR3iSGKXsP7T8lOUpOLcQFyD+a0M+amzRG5itSBDfpJUiPnENZZrceKfijcHWEdcvd6v/BTVaXxHqjK8P7DsfwMeCyxfzfQo8O+B5b8vsGxJask44Bli7pJWAzPLT1Edahawhpi6vYy0TLFUGJ8AqGgnAlODyv4iqaGUyvAk8K9BZc8g7VYoSZV1AXF3/9My5KfONoO4pwBfz5CfJLVlAmnjnYjG8fMZ8pMAvkxMHX8WGJ8hP0katjcS0zBuBl6SIT8J0m6Bm4mp66/PkJ86hHMAVKS3BJX7P8DDQWWr8ywCLgkq+4ygciVpUKOB5cTcFbnqn3I7hpi6/hTeuEmqmCOJaRDvA0ZlyE/a2r3E1PlDcySn5nMkqaKcHFTuV0mNopRb1Kz8qGtNkgZ0M/nvhNbhp3+KMwNYT/56f32O5CSpFTsDW8jfEH4/R3LSEH5A/nq/mTT4kEbEVwAqwquIqUvfDShT6u/CgDJHkyYhSiPiAEBFOCqgzDXATwLKlfr7Iaku5hZxzalhHACoCEcGlBnV8Er9rQEuDyjXAYCkcNsBm8j/HvStOZKTWvBO8tf/jcCkHMlJ0mBeQ8wkqOk5kpNaMIOYSbDHZshNDeYrAI3UEQFl3khadVCqgqeBWwLKfUVAmWoQBwAaqYMCyrwioExpKBF1MuLaU4M4ANBIRTRCvwgoUxrKVQFlHhhQpiQBMJH826KuBybkSE4ahonABvLPhZmYIzk1k08ANBIHkhYlyekW0iBAqpJ1wG2ZyxwN7Ju5TDWIAwCNRMQjyF8HlCm14rqAMucHlKmGcACgkdgroMybAsqUWhFRNyOuQTWEAwCNxLyAMu8MKFNqxd0BZUZcg2oIBwAaidyNzxrg4cxlSq16gDQXIKe5mctTgzgA0EjMzVzePUB35jKlVm0B7stcpk8A1DYHAGrXZPLvSZ67cZWGK3cd3Ym0H4c0bA4A1K65AWUuCihTGo7cdXQUMCdzmWoIBwBq184BZToAUNVF1NGdAspUAzgAULtyP/4HWBxQpjQcEQOAiGtRDeAAQO2aFlDmowFlSsOxOKBMt8ZWWxwAqF0zA8pcFlCmNBxPBZTpEwC1xQGA2pX7ruM53ANA1beO/GsB+ARAbXEAoHbtmLm85ZnLk9r1dObypmYuTw3hAEDtGp+5PAcAqovcddXtsdUWBwBqV+4BwJrM5Untyl1Xx2UuTw3hAEDtyt3obMhcntSujZnLyz0YV0M4AFC7cjc6uRtVqV25B6s+AVBbHACoXT4BkAaWu676BEBtcQCgduWuO+4CqLrYkrm80ZnLU0M4AFC7NmUuz8ecqovcd+Q+HVNbHACoXb7nlAbm/BjVggMAtcuZztLAnB+jWnAAoHblbnRc7ER1kbuu+gRAbXEAoHblbnRc7lR1kXunTJ8AqC0OANSu1ZnLc8MT1UXuAUDua1EN4QBA7cq93vk0rK+qvjHkf1qVe/MhNYQNqtqVu9HpwtcAqr6pwKjMZbpRltriAEDtimh0dgsoUxqO3QPK9AmA2uIAQO2KaHTmBpQpDce8gDIdAKgtDgDUrognABGNqzQcEXX0mYAy1QAOANSu3waUOTegTGk4IgYASwLKVAM4AFC7ngDWZy5zr8zlScO1Z+by1gFPZS5TDeEAQO3qJv+dx/zM5UnDlbuOLgZ6MpephnAAoJFYlLm83XFBIFXXTGBW5jJzX4NqEAcAGonFAWUeGFCm1IqDAsp0AKC2OQDQSDwcUObBAWVKrYgYADwSUKYawgGARuKegDKPDChTasXRAWXeHVCmJLEbaQJSzngyS2bS8IwClpL/etg5R3KSNJBl5G/0XpwlM6l1e5P/OvDzP42IrwA0UhGPIF8ZUKY0lIjH/3cFlKkGcQCgkYpohE4MKFMaykkBZd4RUKYaxAGARurWgDJfC4wOKFcayBjg+IBybwsoU5J+bx753332AEfkSE5qwSuJuQZm50hOzeUTAI3UIuDxgHJPCShTGsjrAsp8DDcB0gg5AFARrgso84yAMqWBvCWgzGsDylTDOABQESIGAHsTs/Ka1N8hwB4B5UZcc2oYBwAqQtTdyFuDypX6/FFQuQuCypWkF+giZhW0R0grsEkRuoBHyV/vf4f1XgXwCYCK0A1cGVDuPOC4gHIlSJ+jRszEv4I0EJBGxAGAivKToHLfH1SuFFX3oq41SRrQNGAz+R+HbgB2ypCf1N/OwEby1/dNwI4Z8lMH8AmAivIMcFNAueOA9wSUq872XmBsQLnXAysCypWkIf01+e+I+iZFjcuQnwQwnrT4VURd/0iG/CRp2GaTJgRGNIzvKj89CUh3/xF1vBuX/5VUYTcQ0zjejZ9GqXyjgHuJqePXZMhPHcQ5ACrahUHlHgCcGlS2Oscbgf2Cyr4oqFxJasmuwBZi7pDuwkGtytMF3EFM3d5CurYkqdKuIqaR7MFNglSePyauXkcstCVJwxbZUN4LjC4/RXWYMcBCHNhK0pDGAU8R11j+WfkpqsN8kLj6vIz06aEk1cK/ENdgLietTCgVYSqpE46qz58tP0VJKs4+xK0J0EMagEhF+BJx9bgH2Lf8FCWpWFcT12huBPYvPUM13XzS+vtR9fiq8lOUpOK9gdg7pxtwQqDa1wX8mtg6/LrSs5SkEowC7iO2Af1g6VmqqT5CbN29H9e1kFRj7ye2EV2F66dr+OYCzxFbd99ddpKSVKbxwBPENqTX4KsAta6L2MWsenCHS0kN8TFiG9Me4JzSs1RTfJz4+vrR0rOUpAwmA0uJbVA3AYeXnahq7xDSFySRdfUp0jUjSY3wUeLvqh4Ediw7UdXWVOBh4uvph8tOVJJymkh6rxnduF6GM6v1h7qAHxNfPx8nXSuS1ChnE9/A9gB/W3aiqp3ziK+XPcCfl52oJEWYACwivpHdApxacq6qj9NIdSK6Xj6IM/8lNdhbiG9oe4A1wGEl56rqeznx3/v3xRtKzlWSwv2S+Ma2h/S+dU7Juaq65hK/RkVf/KLcVCWpGl4KbCa+0e0B7ibN/lZnmU78MtV9sQk3rpLUQb5KfMPbFzcCU8pNVxWyPXAT8fWuL75YbrqSVC0zSAueRDe+fXE1MKnMhFUJk4Bria9vffEEPoGS1IHeTnwD3D+uwG+wm2wS8FPi61n/OKPUjCWpwi4lvhHuH78iPSJWs2wH/Jz4+tU/flRqxpJUcbNJW/ZGN8b942bSJDE1w1TgeuLrVf9YCexeZtKSVAd/QXyDvHXcAexWZtLKYnfgLuLr09bxZ2UmLUl1MYr0ODS6Ud46fgccXGLeKteBwBLi69HW8RNSnZckATsBTxLfOG8dq4HXlZi3ynEC6TF7dP3ZOpYCs0rMW5Jq6WSgm/hGeuvYBJyDd211cRawkfh6s3V0A68vMW9JqrXziW+oB4vvkGaTq5omAxcRX08Gi8+Xl7ok1d8k0gS86MZ6sLgb2Ke07NWu/anO0r4DxS2k3TAlSUOYAywjvtEeLNYBZ+Mrgao4k7S7Y3S9GCyWA/NKy16SGuZkqrFH+1DxA9KSxoqxE3AZ8fVgqNhMmpAoSRqGvyW+AW/l7u6ssk6ABnUG1dpLYrD4P2WdAElqsi7gEuIb8VbiR8CLyjkN6mcu6Tv66N+7lfg+viaSpLZtR7W2bh0qVpE+FxxfypnobBOAjwHPEf87txI34MZSkjRiM4EHiW/UW40lpIlpKsapwMPE/66txiPAzqWcCUnqQPsBzxLfuA8nfgkcWcbJ6BCvJO3OGP07DieW42eiklS4VwPriW/khxuXA4eUcD6a6jDgSuJ/t+HGOuCYEs6HJAk4jWou87qt6CYNBI4r/pQ0xvHAFcT/Vu3ERlzmV5JK98ek76ujG/1249beHMYWfWJqaBzwduA24n+XdmMz8EdFnxhJ0sD+lOovFLSteAb4KmkZ206zJ/AZ0u540b/DSKIbeH/B50aStA0fpJq7B7bTiVwFvBeYVugZqpbppM7yaprzu32gyBMkSWrd+6n/k4D+sRH4MekJx8wCz1OUnYB3keY/1HHuxmCxmTRgkyQFegewifhOoejYAtwInAscAYwp6HyVaQzp08fzgJtp1uCsLzYCbyvqhElRXKZSTfFG4Ds0exW+NaQBwQLg16QtZpeHHlF6rH8oqdM/GjictKVzU20gTfj7YfSBSCPlAEBN8lrS+utTog8ko8eBu4E7gYXAot74LenuuwhjgN1JW9rOIy10Mx84ENi1oDLqYCXwZuAX0QciFcEBgJpmPukd+u7RBxJsE/AEsAx4mvSkYDmwlvQYe8VW//2OpPZgEumufjppq+OZwC74yeIS4BTgnugDkSQNbhfS4/Hod8VGM+JOHFBKUm1MIT0JiO48jHrHZcBkpAYaHX0AUkk2AheSGvFj8HWXhqcH+CxwFmninySphk6lfjsJGnGxijTZT5LUAHuRZstHdy5GtWMhaetpSVKDTAG+RXwnY1QzvoHv+yWp0c4gbcQT3eEY1YiVwDuRJHWE2cCviO98jNi4HngxkqSOMhr4BLCe+I7IyBvrgY/hl1CS1NH2AH5JfKdk5InrcKKfJKnXKNI336uI76CMcmIlcDbQhSRJW5kNXEx8Z2UUG9/D5XwlSS14NXAH8R2XMbK4DzgRSZKGoQs4E1hKfEdmDC+Wkx73O8lPktS2qcA/AM8R37EZQ8dq4NOk7Y0lSSrEDOAzwFriOzrjhbEe+Cowa9BfT5KkEdoV+DKwjviOr9NjLfBFYJchfzFJkgo0EzgXWEZ8R9hpsYz0NMaOX5IUZjxpsuD9xHeMTY+HSZP7JrX0y0iSlEEXcDxwEbCR+M6yKbEZ+BlpE6cxLf8akiQFmAWcAzxEfAda13iQ9IrlRcM79ZIkxRsFHA18CXiC+E616vE48AXgqN5zJ0lS7Y0mrTD4FeAp4jvbqsRS4HzgWFynX8rGEbYUows4mDRn4HjgVcDY0CPKpxu4Hfg58CPg173/JikjBwBSNcwATgCOIb0y2I/m3A13A/cCC4BrSBP6locekSQHAFJFTQWOJL0LPww4iDRIqIOngTuBG0l399cBK0KPSNIfcAAg1ceuwIGkwcABwB7APOKWv30CWEz60uFuUqd/d++/S6o4BwBS/U0kDQTmArNJKxTOAKb3xgxgWu9/uz1pMuJYYHLvvz0HbAK2AKt6/215v3i6989lwBJgEanjX1daRpIkSZIkSZIkSZIkSZIkSZIkSZIkSZIkSZIkSZIkSZIkSZIkSZIkSZIkSZIkSZIkSZIkSZIkSZIkSZIkSZIkSZIkSZIkSZIkSZIkSZIkSZIkSWqaUdEHIGlYpgM79cYuwAxgCrBDb0zpF9sDO/L8dT4emNTv/6vv72v7/dtaYEPv33uAFcAqYHW/WNkbq4FlwBO9fy4FnikkS0mlcwAgVccMYO4AsQuwMzATGBdxYMOwkTQYeJI0MFg8QCyPODBJL+QAQMprErBPb+zf++depI5+ctxhZbWaNBB4AFgI3Afc3/v3dXGHJXUWBwBSOUYBewIvBw4mdfb7AnOArsDjqrJu0sDgfuBe4HbgVuAh0usISQVyACCNXBfPd/Z9cTDpHbxGbiXPDwb64kEcFEgj4gBAGr4xwEHA0cBRwHGkyXnKZzVwI3AdsKA31ocekVQzDgCkbZsEvLJfHAZMCD0ibW0dcDNwDXBtbzifQBqCAwBpYC8GjgdO7f3TDr9e1pOeCvy8N27DVwbSCzgAkJJpwMnAicAJwKzYw1HBngB+2htX4HoFkgMAdbTZwEmku/wTgbGxh6NMtgA3AJcBF5MmFEodxwGAOs1BwOnAaaSZ+tJtwA+AS4G7go9FysYBgDrBHOBtwLuBvYOPRdW2ELgQ+DZpoSJJUs1MB84iTQTrJk0AM4zhxL3AOTgfRJIqbwLwTuBnwGbiOxCjGbEZuBJ4O34NIkmVsi/wGdImNNGdhdHsWAF8FXgpkqQQU4AzSXf70Z2C0ZlxC+k1U6ds4iRJofYBzictBRvdARhGD7AK+DJpV0dJUoFGkVbjuwwn9BnVjW7SE6lT8QsrSRqRCaTH/PcQ37gbxnDiAeBsYDskSS2bAXyKtFxrdENuGCOJ5cAncbdISRrSzqTZ/M8R33AbRpHxHPAFYHckSb83j9Q4riO+oTaMMmMDcAGuSCmpw+0J/Dcu2mN0XmwCvgnsgSR1kN1Ji6lsIr4hNozI2Eh6IjAPSWqwGaR3/GuJb3gNo0qxgTQodt8BSY2yPWlWv4v3GMbQsYr01cAUJKnGukjf8T9JfMNqGHWKp0nrCIxGkmrmOOAO4htSw6hz3AechCTVwJ7ARcQ3nIbRpPgZsB9SgVyvWkWZDJwLfAgYG3soGsQG0gTMPut6/5zY798mAeOzHZGGYyNpvYxPAmuCj0UN4ABARTgd+CLwougDabhNwFPAUtK8imW9/7vv76t7Y0W/vz/X+2c7ppAGdlN6Y8d+f58J7ALs1Pv3Wb1/3wkHgGVbQhpoXxp9IKo3BwAaiTnAl0i7n6kYj5M2klncG4v6/f13wJaYw2rZaGA3YG5vzOv3972AXWMOq5EuJQ0ElkQfiOrJAYDaMRb4MPB3uNtZux4B7gXuBxaSJnstBFZGHlQGOwD7APuTlsPdt/fvL448qBpbQ3r19nnSippSyxwAaLheDnwdmB99IDXRAzwI3NYvbiU9ptfzpgIv6xcvJy2TaxvVmjuBdwO3Rx+IpOYZR1rMx+V7h441wFXAecCJpEWQ1J7tSefwPNI5dZfIoWMjaYLguHZOtiQN5GXAXcQ3cFWM1cAPgY8Ah+MEuDKNAQ4jnetLSavmRf/+VYw7gJe2eY4lCUid2Tmkz8eiG7WqxBbgFtKeBsfjJ3ORRpNeFZxD+k5+I/H1oyqxiVRHfRogadj2J71XjG7IqhDPAt8G3gpMG8lJVammAmeQttldTny9qULcTppoKUktORPftz5K2p3tVLyLqqPRwNGku+CFxNenyFhH2ldAkgY1DbiE+AYrKpYA/0h6rKxmOQj4v6R1FaLrWVR8n/SURJJe4FjgMeIbqdzxDHAB6U7fndc6w/6kJwOPE1//cscS4JiRn0JJTTCa9JnVZuIbp1yxEbgYeD3O2u9ko4ETSPM71hFfL3PFZtIiXl0jP4WS6mo6cCXxDVKu+A1pxvjORZw8NcoOwFmkRZqi62muuIq0d4OkDnMoaaJbdCNUdqwnPeJ/Ja4qp9YcAnyFtMZDdP0tOxbhnBepo5xJ2hY2uvEpM54kvefdraBzps6zPempwP3E1+cyY31vnpIabALwNeIbnDLjFlJjNqGgcyZ1kRZ9ugzoJr6OlxUXABMLOmeSKmRX4GbiG5kyopvUOB9Z2NmSBrY/8A2au+rgDcCsws6WpHDzaeb7/i2kjv+Q4k6V1JI5wBdImz9FXwdFx29J+39IqrnTaN5kpvWkSVovKfA8Se2YCXyatFx09HVRZKwifSYrqabOJt0lRzcmRcUW4CLgxUWeJKkAU0ifmK4g/jopKrqBcws8R5IyGAv8B/ENSJEd/7eAPYo8SVIJZgCfpVmvBr5K2opZUsVtB1xOfKNRVFwCHFDoGZLKN4s0R6ApW2n/CJhU6BmSVKipwALiG4si4lbgVcWeHim72aTP65rw+eCNpCcckipmV+Au4huJkcbvSN/xuzGPmuQw4Frir6+Rxn3Aiwo+N5JGYH/qv5PfGtIGJT5mVFONAt4GLCb+ehtJPArsW+ypkdSOVwDLiW8URhKXkr6rljrBROBTpM9Zo6+9duNp0lMNSUGOJn2vG90YtBu/Je1LIHWiPYCfEH8dthvPAccWfVIkbdsx1HeBn02kGdJTCj8rUv2cSn1X6nwOOK74UyJpMCdQ3++MbyUtTSzpeVOAL1PPrwWeA15d/CmRtLUTqedWvhtJ2/OOK/6USI1xFLCQ+Ot1uLGGdGMiqSSnUM+JQzfjYj5SqyYC/wRsJv7aHU6sI92gSCrYa0gXWPRFPpzYCHwMlxGV2nE4cD/x1/FwYi0u4CUV6nDqN+FvEekTRUntm0iaMFunuQGrgEPLOBlSpzmQ+n3nfwEwuYyTIXWoE4HHib+2W41ngZeWciakDrEn8ATxF3OrsRJ4RylnQtJOwGXEX+etxlJg71LOhNRCssY9AAANvklEQVRwc4AlxF/ErcbNwNwyToSk3xsFfJg0vyb6mm8lFuPeAdKwTKNenwJdQHpXKSmPQ0jzbKKv/VbiPtJOpZK2YRzwC+Iv2lZiHfC+ck6DpG2YTn2WEv4VML6c0yA1wyjgm8RfrK3EozjTV4o2CjiHeqwZ8J3e45U0gM8Qf5G2Er8gvaaQVA0nkWbeR7cN24pPl3UCpDp7H/EXZyvxNWBsSedAUvv2JL1vj24jthUfKOsESHV0EmmHvOgLc6jYTJp9LKm6dgSuIL69GCo24b4BEpBG7VV/dLeatGWppOobTfVfJz4D7FHWCZDqYApwD/EX41DxBHBwWSdAUmneQ7WfLN4PbF9a9lKFjQK+R/xFOFQ8hKN0qc5eS1qbP7otGSwuwS8D1IHOI/7iGypuAmaWlr2kXA4FniS+TRks/qa81KXqOZ1q7+71M9LrCUnNMI/qri7aDby5vNSl6tiTaj+SuxA/85OaaCZwK/FtzECxAnhxealL8cZT3QuwB/guMKa07CVF2wFYQHxbM1DcTFoKXWqkfyX+Ihss/hs7f6kTTAKuJL7NGSg+V2LeUpg3E39xDRZfA7rKS11SxYwDLia+7dk6uklzpKTGmEd1F/v5Cn6GI3WiscBFxLdBW8dyYHaJeUvZjCN9Uhd9UQ0UF+Cdv9TJxlLNJwG/xleSaoC/J/5iGiguwQtMUhoEXEp8m7R1/F2ZSUtlezmwkfgLaev4KemLBEmC9KTyMuLbpv6xibSIkVQ7k6jmwhu/6j02SepvAmkRsOg2qn/c23tcUq18kfiLZ6CLaWqZSUuqtUnAdcS3Vf3jn0rNWCrYcVRvqd/fAXPKTFpSI0wH7iO+zeqLLcCrSs1YKsj2wKPEXzT9YxXw0jKTltQos4HHiG+7+uJhYHKpGUsF+DLxF0v/2AicWGrGkppoP9I3+dFtWF/8S7npSiNzOOlxVfSF0j/eW2rGkprsKGAd8e1YD7CZ9GWVVDljgNuIv0j6x+dLzVhSJziD6sxpugPXL1EFfZT4i6N//BwvFEnFOJf4Nq0vPlxuqtLwzAZWE39h9MUi0t7fklSEUcC3iG/beoA1wNxSs5WG4UfEXxR9sRqYX266kjrQBOB64tu4HtLSxVK4U4m/GPrHW8tNV1IH2xn4LfHtXA9wcsm5SkMaB/yG+AuhL/613HQliSOA9cS3d/eTNjKSQvwV8RdBX9wFTCw3XUkC4C+Ib/N6gA+Vnag0kGlUZ5GM1cA+5aYrSS/wdeLbvmdISxdLWZ1PfOXvi3eUnKskbW0CcCvx7d8Xyk5U6u9A0qpU0RW/B/jPknOVpMHsQdprJLIN3AjsW3aiUp/Lie/4e0jf+29fcq6SNJQ/Ib4t9LNAZXEU8ZW9h7TnwLHlpipJLfkm8W3iEaVnqY53FfEVvQf4x7ITlaQWTSb+k+iflp6lOtoJxHf8PcC9pAk4klQVhwAbiG0bX116lupYNxDf+W8mXWiSVDWfILZ9XFB+iupEVVny93NlJypJbRoD3ERsG+kSwSrUKOB24jv/JcCUknOVpJE4kNhXAbeQ2mypEKcQ3/n3AKeVnagkFeDjxLaVJ5afojrFNcR3/t8vPUtJKkb0q4Cryk9RneAVxHf+q4Hdyk5Ukgp0IGmVvqh287DyU1TTXUr8AOBjpWcpScX7LHHt5v9kyE8Ntg9pxb3Izv8R/OZfUj1NIi1ZHtF2bgH2Kz9FNdV/EX/3/+ayk5SkEp1OXPv5HxnyUwPNIn5Vq6vLTlKSMvghMW3oemCnDPmpYaJXtNoCvLT0LCWpfHOANcS0pc6h0rCMAR4jdgDw36VnKUn5nEdMW7qE1KZLLXkTsZ3/ZmDv0rOUpHwmA48T06aeniE/NcTPiR0A/Hv5KUpSdu8hpk11q2C1ZE+gm7jOfx3wotKzlKT8ukhr9eduV7vxqapa8Hli7/4/X36KkhTmOGxbVUFjgWXE3v3PKj1LSYr1E/K3r8uB8TmSUz2dSuzd//nlpyhJ4V5OzKvWM3Ikp3r6LnGd/2bS/ANJ6gQ/IH87e3mWzFQ7k4hbqKIH+E75KUpSZRxE/r1WNgMzcySneol+/P+y8lOUpEq5iPxt7btyJKZ6OZ+4zv8nGfKTpKrZl/xPAS7JkplqZQlxA4DXZchPkqrof8jb3q7BrwHUz17Edf4PkRbHkKROdCj5292js2RWcXY8SWRlOJ/0OYwkdaKbgV9mLvNVmctThf0nMXf/a4FpGfKTpCo7kbxt75V50lId3E/MAODrOZKTpIobBdxOvrZ3eZ60VHUTSN+GRgwADsmQnyTVwTvJ2/7unictVdnLiOn8b8yRnCTVxHhgKfna4I7/+spJgHBgULlfCSpXkqpoA/CNjOXtl7GsSnIAAC8JKHM1ad8BSdLz/iNjWbMzllVJDgBgTkCZC0hb/0qSnvcAaVG2HBwARB9ABURUgmsDypSkOvhVpnIcAEQfQAVEzAS9JqBMSaqDXO1jx+8K6AAAdgwoc2FAmZJUB7/JVM72mcqpLAcA+SvBRuCZzGVKUl08mamcKXR4H9jRyQMTgXGZy+z7zlWS9IeWZipnFLBdprIqqdMHABFbQq4IKFOS6mIVbpCWRacPACLuxCcFlClJdTGBfH1TRw80HADkNyWgTEmqi8nRB9ApOn0AsCWgTAcAkjS4XAOAHmB9prIqqdMHAGuATZnLnAjsmrlMSaqLPTOVs4qYm8DK6PQBAMDKgDIPCihTkupgfqZyOn5CtgMAeDagzFwVXJLqJlf72PHrsTgAyLfoRH9HBJQpSXWQq33MtelQZTkAgMUBZb6WDl+AQpIGsB+wV6ayFmUqp7IcAMRUgknACQHlSlKVvTFjWYszllVJDgDg4aBy3xRUriRV1ekZy3JTNjGf9D1o7lgPzMqQnyTVwaHkbYN3zpOWqmwMsI6YQcAnM+QnSXXwPfK1vb/NlJNq4CZiBgBPkRYGkqRONg/YTL6297I8aVWbcwCSBUHlzgTODipbkqriXGB0xvKuzliWKu4UYp4A9JCWI55dfoqSVEmvIO3Kl7PdPThLZqqFKcBG4gYB3y4/RUmqnC7gFvK2t8vx6be2chVxA4Bu4KTyU5SkSvkw+dvbb2bJTLXyAeIGAH2j0jmlZylJ1XAosIH8be1pOZJTvcwkbQ0cOQi4HhhbdqKSFGwq8Aj529jV+OWVBvEzYgcAPcC/AaPKTlSSgowHriSmff1WhvxUU28hfgDQA3yu7EQlKcBY4FLi2tZjyk9RdTUW+B3xA4Ae4FMl5ypJOY0BLiSuTb0Pn65qGz5JfOffF18HJpSbriSVbjrwc2LbUxdd0zZNB1YR3/n3xW34dYCk+jqImAl//eNpYHLZiaoZPkt8x98/lgHvwsdXkupjHPBxYC3xbegnSs5VDbITaYne6Eq7dVxL2r5YkqrseGAh8W1mD7AC2LHcdNU05xJfcQeKLaTPFU/FJwKSqqOL1C5V4XPq/vHRMpNWM00CHiW+8g4VdwIfI71jk6TcRgNHAf8ALCa+Tdw6HiKtO6ABeAc5tLcC340+iBYtIW1xeS9wD+mTl+Wkla8kaaR2JK2YeiCwf++frwZmRB7UNrwJuCT6IKrKAcC2/Rh4XfRBjEAP6R3YStKmQ5LUqrHA9sAO0QfShkuB06MPosocAGzbLqQ76mnRByJJasly4ADgyegDqTL3RN62J4C/jD4ISVLL/hI7/23yCUDrLgT+KPogJElDuoT07l/b4ACgdTOAu4FZ0QciSRrQU6TJiU9FH0gd+AqgdU8DZ5Em1UmSqqUHeA92/i0bHX0ANfMAaT3pI6MPRJL0Av8POD/6IOrEVwDDNxq4HHht9IFIkgD4BXAiaaVUtcgBQHt2Am4E5gYfhyR1ukeAw0mvaTUMzgFoz1PACcDS6AORpA72NGmhNjv/NjgAaN9DpI0vnos+EEnqQGuBNwC/iT6QunIAMDI3k5aaXBN9IJLUQdYArweujz6QOnMOQDGOJk0MnBJ9IJLUcGtIT19/GX0gdecTgGIsAE4Cnok+EElqsOXA8dj5F8InAMV6CWn3wL2jD0SSGuZh0mP/hdEH0hQ+ASjWw6TXAddFH4gkNcg1pE/97PwL5EqAxVsLXACMB47CpyyS1K4e4EvAn+AXV4WzcyrXm4CvAztEH4gk1cwK4N3AD6IPpKl8BVCui4F9gcuiD0SSauRKYD52/qVyAFC+J4DTgPcDK4OPRZKqbAVpR7+TgMeCj6XxnAOQz23A14AJwCE4+JKkPj3At0g3SwuCj6VjOAcgxqHAPwOvjD4QSQp2DfBXwC3RB9JpvAuNcTNwDGkA4IIWkjrRr0lr+b8KO/8QPgGohtcAZwOn4KBMUnN1kyZFfwFvfsI5AKiWlwAfAN4B7Bx8LJJUlCdJ7/jPBx4JPhb1cgBQTWOA15IGAq8Hto89HEkatpXAj0gd/8+ALbGHo605AKi+saT5AqeQBgX74msCSdXTDdwH/JS0J8q1wKbQI9KQHADUz47AK4AjgAN64yX4SaekfDaTHuXf0xs3ANeTvuNXTTgAaIbxwFzSvIHdgFnAOGAy6QmCJLVjE2kN/g3AUuC3vX8+2vtvkiRJkiRJkiRJkiRJkiRJkiRJkiRJkiRJkiRJkiRJkiRJkiRJkiRJkiRJkiRJkiRJkiRJkiRJkiRJkiRJkiRJkiRJkiRJkiRJkiRJkiRJkiRJkiRJg/r/bA4mjXFGTXkAAAAASUVORK5CYII=;fontSize=21;" vertex="1" parent="WIyWlLk6GJQsqaUBKTNV-1">
          <mxGeometry x="1160" y="140" width="122" height="122" as="geometry" />
        </mxCell>
      </root>
    </mxGraphModel>
  </diagram>
</mxfile>
